<svg width="1441" height="41" viewBox="0 0 1441 41" fill="none" xmlns="http://www.w3.org/2000/svg">
<path d="M5.12221 32.1223L0.500244 30.8247V19.3625L12.8255 16.9836L14.8797 15.4697L15.9068 12.8745L21.0423 11.3606L25.1507 12.8745L31.8269 11.7931L38.5031 13.307L39.5302 15.4697L42.6115 17.4161L46.7199 14.6046L50.3148 12.0094L56.4774 12.4419L61.0994 11.7931L65.7214 12.4419L69.3162 11.3606H73.9382L77.5331 10.063L82.155 11.3606L85.7499 10.9281C90.2548 8.84122 89.2272 7.25364 88.907 7.04122C88.8572 7.04717 88.8312 7.04542 88.8312 7.03525C88.8312 7.00869 88.8622 7.01148 88.907 7.04122C89.7037 6.94597 96.5847 4.87686 100.129 3.79123L104.238 5.30511L108.86 4.44004L112.968 5.95391H123.753V8.54912C124.985 9.93323 130.771 10.7118 133.51 10.9281L131.97 13.0907L133.51 16.551L138.132 17.1998L142.241 16.7673L146.349 15.2534L150.457 14.6046H155.593L159.188 13.0907C166.172 13.0907 170.657 12.6582 172.027 12.4419L178.189 13.7395C181.099 12.8024 187.433 11.1011 189.487 11.7931C191.542 12.4852 196.164 12.6582 198.218 12.6582L198.731 13.7395C199.553 14.7776 205.921 15.758 209.002 16.1185L213.111 15.2534L217.733 16.551L221.841 15.6859L225.95 15.2534L229.544 17.4161H234.166L238.788 16.1185L242.897 17.4161L248.546 16.1185L252.654 18.4974L257.79 16.551L263.439 18.0649L266.52 16.1185C266.109 15.5994 279.359 14.3163 286.035 13.7395L289.63 16.9836H294.252L298.874 15.0371L304.523 15.4697L313.253 14.1721L320.443 15.0371L319.93 11.5769L325.065 11.1443L327.119 9.19792L333.796 8.76539L336.363 6.81898C337.596 4.74281 345.436 3.79123 349.202 3.57497L346.121 5.08884C348.997 5.60788 351.085 8.90956 351.77 10.4955L358.446 10.9281L359.473 13.7395L372.826 13.5233L380.529 14.1721L384.637 14.3883L385.664 15.0371L386.691 14.1721C388.917 14.3883 393.573 14.8209 394.395 14.8209C395.216 14.8209 397.476 12.3698 398.503 11.1443L407.233 7.68405L407.747 5.73764L411.855 4.6563L417.505 5.52137C418.703 4.94466 421.305 3.79123 422.126 3.79123C422.948 3.79123 428.974 4.6563 431.884 5.08884L434.965 7.46778L440.101 8.33285L443.182 10.063L451.399 13.5233L473.482 14.3883L479.131 13.0907L486.32 14.3883L490.429 13.5233L493.51 15.0371C496.797 15.0371 500.358 17.4882 501.727 18.7137L509.944 19.1462L515.593 18.0649L519.701 20.8764L527.405 19.3625L531.513 20.2276L535.108 21.5252L539.216 20.8764H548.974L555.136 18.2812L565.408 15.9022L566.948 13.5233L574.138 15.0371L579.273 16.551H583.382L592.112 18.2812L601.356 19.1462L605.978 23.4716L612.141 21.3089C613.853 21.3089 617.584 21.3522 618.817 21.5252C620.049 21.6982 624.808 20.4438 627.034 19.795L631.656 21.9577H638.332L644.495 19.795C648.192 19.968 651.513 18.4253 652.711 17.6324L653.738 15.4697H660.415L661.955 13.0907L666.577 12.6582L672.226 13.0907L675.821 11.7931L687.633 12.2257L693.282 11.3606C694.515 11.8796 701.67 12.4419 705.094 12.6582L706.634 15.6859C710.743 17.4161 716.221 17.7044 718.446 17.6324L722.041 16.7673L725.636 17.4161H736.42L737.447 16.7673L740.015 15.6859C740.186 15.5418 740.631 15.1237 741.042 14.6046C741.453 14.0856 748.746 13.0907 752.34 12.6582L753.368 10.4955L757.476 8.76539C757.887 8.59237 771 8.6933 777.505 8.76539L782.64 6.38644L786.235 7.25151L788.803 3.57497H795.992L797.533 1.84483L801.128 1.41229L807.804 2.49363L814.48 1.41229L816.534 3.14243C815.713 8.85189 822.012 11.1443 825.265 11.5769C826.087 11.0578 833.482 12.3698 837.077 13.0907L838.617 15.4697H844.266L844.78 17.6324C846.423 18.4974 851.285 17.9928 853.51 17.6324L858.132 16.551L860.186 16.9836L866.349 16.1185L870.971 16.3347L875.079 14.1721H879.701L885.35 14.6046L887.405 12.4419L897.162 13.7395L901.784 12.2257L905.379 14.3883L911.542 13.0907L917.704 13.7395L920.272 16.7673C920.683 16.2482 930.029 18.137 934.651 19.1462L938.76 18.2812L946.977 19.3625L956.221 19.1462L959.815 18.2812L963.41 19.1462L966.492 17.8486L972.654 17.4161L978.817 19.1462C980.46 17.4161 990.115 15.9743 994.737 15.4697L1000.39 16.3347L1006.55 15.0371L1011.68 15.9022L1016.31 15.0371L1020.41 16.3347L1025.04 14.8209L1028.63 15.4697L1034.28 14.8209L1038.39 15.6859L1043.01 15.4697L1046.61 12.6582L1052.77 11.3606L1059.44 12.6582L1068.69 12.0094L1074.85 11.7931L1078.45 10.7118C1081.73 10.3658 1087.69 12.1536 1090.26 13.0907C1090.67 12.7447 1098.99 12.8024 1103.1 12.8745C1104.33 14.0856 1109.09 14.8209 1111.31 15.0371L1116.96 13.9558C1120.73 14.2442 1128.16 14.7776 1127.75 14.6046C1127.34 14.4316 1138.19 12.9466 1143.67 12.2257L1148.29 11.3606L1153.42 10.7118L1158.05 9.41419L1160.61 10.063L1164.72 11.3606C1165.58 11.5048 1167.5 11.7931 1168.32 11.7931C1169.14 11.7931 1173.11 14.2442 1174.99 15.4697C1176.61 15.1288 1179.38 14.5193 1180.08 14.2763C1180.01 14.2092 1180.03 14.1721 1180.13 14.1721C1180.3 14.1721 1180.27 14.2109 1180.08 14.2763C1180.52 14.7386 1184.56 16.6252 1186.81 17.6324L1192.97 16.7673L1196.05 18.7137L1201.7 19.5788L1203.24 20.4438L1212.48 21.5252L1216.59 20.2276H1228.4C1229.22 20.2276 1231.83 17.9207 1233.03 16.7673H1239.7L1241.24 14.1721L1253.05 14.8209L1260.24 13.7395L1265.38 14.8209L1271.54 14.1721L1274.11 11.7931C1274.11 12.1392 1280.27 10.2072 1283.35 9.19792L1289 8.76539C1289.34 8.11658 1289.93 6.68922 1289.52 6.17018C1289.11 5.65113 1296.88 4.6563 1300.81 4.22377V2.06109L1303.9 0.54722L1313.65 0.114685L1314.68 2.06109C1316.56 2.7099 1320.12 4.05075 1319.3 4.22377C1318.48 4.39678 1322.04 6.45853 1323.92 7.46778V9.41419L1331.63 12.4419L1334.71 13.0907L1344.47 12.8745L1353.71 10.9281L1359.36 14.6046L1365.01 15.9022L1366.04 17.8486L1371.17 19.3625V21.5252H1378.87L1381.96 23.6878L1386.06 24.3366L1393.25 23.6878L1396.85 25.418L1400.96 24.1204L1405.58 24.9854L1410.2 24.1204L1413.8 25.418L1416.36 22.8228L1420.99 24.9854L1424.07 23.2553L1434.34 23.4716L1438.96 22.3902H1440.5V34.5012H1438.96L1434.34 36.0151L1427.66 35.3663L1420.99 37.529L1414.82 36.4476L1406.61 38.6103L1403.52 36.6639L1398.9 36.8802L1396.33 34.9338L1387.09 34.0687L1384.52 31.4735C1380.83 30.7814 1375.45 31.3293 1373.22 31.6897L1368.6 34.5012L1362.44 33.6362L1358.33 36.0151L1352.17 34.5012L1348.57 36.0151L1344.47 35.3663L1339.84 36.6639L1329.57 35.5826L1326.49 37.9615L1320.33 38.394L1308 37.9615L1305.44 35.5826L1298.76 33.6362L1297.22 31.4735L1292.6 30.3921L1285.41 30.6084L1274.11 29.9596L1268.46 28.0132L1265.89 30.6084L1260.76 31.4735L1254.59 30.8247C1251.72 32.3818 1244.49 33.3478 1241.24 33.6362L1237.65 34.9338L1232 35.3663L1223.27 36.4476L1221.73 37.529H1214.54L1210.94 38.1778L1205.29 37.0964C1202.42 37.9615 1198.62 37.4569 1197.08 37.0964L1190.4 38.1778L1185.26 34.9338L1179.1 34.0687L1171.4 34.9338L1170.89 32.5548L1167.29 33.4199L1159.59 32.5548L1151.88 33.4199L1145.21 35.3663L1139.05 33.8524L1135.96 31.906L1131.34 30.8247L1124.15 32.1223L1121.58 30.8247L1115.94 31.0409L1111.83 29.3108L1107.2 30.8247L1101.56 31.0409L1099.5 32.1223V34.7175L1097.45 37.0964L1082.04 36.6639L1076.39 38.394L1068.69 35.3663L1062.53 36.6639L1059.96 34.285L1049.69 32.7711C1048.45 31.0409 1043.01 28.8783 1040.44 28.0132L1034.28 29.3108L1024.01 29.5271L1021.44 31.2572L1011.68 31.906L1007.06 32.1223L1000.39 32.7711L995.251 33.6362L983.439 34.0687L976.249 35.3663L967.519 35.7988L962.383 34.9338L957.761 35.5826L941.841 35.3663L936.192 36.6639L931.57 34.0687L925.921 34.7175L920.272 34.0687L917.704 32.7711L911.028 31.4735L907.947 29.5271H901.784L898.703 27.1481L894.081 28.4457L885.864 27.7969L880.729 28.662L877.134 28.4457L871.998 29.9596L868.403 32.1223L859.159 31.4735L855.051 33.6362L848.375 34.0687L838.104 34.285C826.189 36.3611 817.39 34.285 814.48 32.9873L807.291 32.7711L803.182 31.2572H799.074L792.398 28.662L787.262 30.6084L782.64 28.662C781.818 29.3541 776.135 30.248 773.396 30.6084L767.233 30.3921L764.152 32.1223L759.53 32.7711L755.935 34.285L750.8 35.3663L744.124 35.15L735.393 37.529H730.771L726.149 36.0151L721.014 36.8802C720.192 36.3611 715.194 35.943 712.797 35.7988L709.202 34.7175L702.012 35.7988L696.877 33.6362L690.714 35.15L687.633 33.6362H682.497L677.875 31.0409L670.686 31.906L668.631 29.5271L656.306 32.9873L645.008 34.285V36.8802H639.873L636.791 38.394L630.629 39.9079L625.493 38.394L619.844 39.9079L615.736 37.529L609.059 39.2591L603.924 38.394L595.194 34.285L590.058 34.9338L584.922 32.5548L578.76 34.9338L575.165 32.5548L570.543 34.285L565.921 32.5548H560.786L557.191 30.1759L553.082 31.0409L543.838 29.5271L538.703 31.906L532.54 31.0409H527.405L522.783 30.1759C521.961 31.214 515.251 33.7803 511.998 34.9338L502.754 36.2314L497.105 34.9338L492.997 36.2314L487.861 33.6362L471.941 32.9873L469.887 32.1223L459.102 30.6084L446.777 31.4735L443.182 32.1223C438.252 32.6413 436.677 34.2129 436.506 34.9338L428.803 33.6362L424.181 35.5826L418.532 36.2314L411.855 36.8802L407.773 38.5993C414.562 41.3166 410.687 39.7797 407.747 38.6103L407.773 38.5993C407.447 38.4687 407.096 38.3284 406.72 38.1778C398.503 34.8905 391.656 37.529 389.259 39.2591L373.339 35.5826H368.717L363.068 34.285H358.96L350.229 30.6084L344.58 32.1223L339.445 30.6084L334.309 31.4735L329.174 32.1223C328.66 32.8432 327.427 34.1552 326.606 33.6362C325.784 33.1171 318.389 34.7175 314.794 35.5826H307.091L295.279 34.285L289.117 33.6362L281.927 34.9338C278.229 33.3766 263.268 32.4106 256.249 32.1223L254.709 34.9338H250.087L247.519 36.8802H241.356C236.392 37.3848 226.771 38.3508 228.004 38.1778C229.236 38.0048 219.273 36.3755 214.138 35.5826C208.797 38.3508 203.696 35.8709 201.813 34.285C193.185 36.5341 184.523 34.357 181.271 32.9873H171.513L169.459 32.1223H159.188L153.539 29.5271L150.457 29.0945L143.268 30.8247L133.51 29.0945L130.942 29.9596H124.266L119.131 31.4735L112.968 30.8247L99.6158 32.1223L96.5345 34.9338H89.3447H85.2363C83.2627 35.0723 80.1935 35.2995 78.6738 35.445C78.5306 35.5324 78.3263 35.5826 78.0466 35.5826C77.4558 35.5826 77.8208 35.5267 78.6738 35.445C79.3716 35.0187 78.6148 33.7052 78.0466 32.9873C77.1907 33.1315 74.9653 33.4631 72.9111 33.6362C70.3433 33.8524 69.3162 31.4735 67.262 32.1223C65.6186 32.6413 56.991 30.8968 52.8826 29.9596L47.2335 30.8247L41.5844 29.9596L29.7727 29.5271L21.5559 31.4735L15.3933 30.8247L5.12221 32.1223Z" fill="#E5E5E5"/>
<path d="M0.635393 30.3433C0.545294 30.6642 0.455195 30.9851 0.365096 31.3061C1.90687 31.7346 3.44863 32.1632 4.99039 32.5918L5.18334 32.6061C8.60592 32.1649 12.0285 31.7237 15.4511 31.2827L15.3449 31.2838C17.3997 31.495 19.4544 31.7062 21.5091 31.9175L21.6588 31.9079C24.3962 31.2524 27.1335 30.597 29.8709 29.9417L29.7571 29.9529C33.6947 30.0877 37.6323 30.2227 41.5698 30.3578L41.5241 30.3535C43.4078 30.6375 45.2915 30.9215 47.1751 31.2056H47.2918C49.1742 30.913 51.0566 30.6204 52.939 30.3279L52.7997 30.3228C57.5963 31.2755 62.2105 32.6516 67.3647 32.4473C69.0748 31.8089 70.6134 34.3091 72.9386 33.9631C74.6707 33.8095 76.3851 33.5826 78.0993 33.3003L77.7977 33.1843C78.4122 33.9544 79.2062 35.4176 78.0466 35.2722C77.9601 35.2723 77.8783 35.2715 77.8298 35.2673C77.8255 35.267 77.8251 35.2665 77.8353 35.2686C77.8348 35.2688 77.8505 35.2704 77.8828 35.2838C77.9051 35.302 78.0194 35.3133 78.0647 35.5286C78.0611 35.7693 77.9761 35.7674 77.9522 35.8037C77.9199 35.8288 77.9025 35.8358 77.8903 35.8415C77.832 35.863 77.8729 35.8477 77.8829 35.8474C77.9099 35.8422 77.9542 35.8355 77.9879 35.8308C78.1415 35.8096 78.3005 35.7926 78.4609 35.7758C78.7811 35.7428 79.1045 35.7131 79.4278 35.6844C80.0769 35.6269 80.7226 35.574 81.3696 35.5222C82.6654 35.419 83.9623 35.3214 85.257 35.2278L85.2363 35.2285C86.6058 35.2258 87.9753 35.2231 89.3447 35.2204C91.7413 35.2157 94.1379 35.2111 96.5345 35.2065L96.6397 35.2067L96.7183 35.1353C97.7437 34.1961 98.769 33.257 99.7943 32.318L99.6414 32.3859C104.091 31.945 108.541 31.5044 112.991 31.0639L112.943 31.0637C114.998 31.2763 117.052 31.4889 119.107 31.7016L119.196 31.6935C120.907 31.1859 122.618 30.6783 124.329 30.1707L124.266 30.1797C126.492 30.1759 128.717 30.1721 130.942 30.1684L131.009 30.1575C131.865 29.8677 132.72 29.578 133.575 29.2882L133.475 29.2957C136.728 29.8671 139.981 30.4386 143.235 31.0101L143.312 31.0078C144.968 30.6064 146.624 30.2051 148.281 29.8039C149.02 29.6247 149.759 29.4456 150.499 29.2664L150.433 29.2696C151.46 29.4122 152.488 29.5548 153.515 29.6975L153.467 29.6834C155.351 30.5457 157.236 31.4079 159.12 32.2702L159.188 32.2851C162.612 32.28 166.035 32.2751 169.459 32.2703L169.401 32.2587C170.087 32.5461 170.772 32.8335 171.457 33.1209L171.513 33.1323C174.766 33.1278 178.018 33.1234 181.271 33.119L181.219 33.1087C187.765 35.564 195.051 36.1052 201.839 34.387L201.745 34.3656C205.192 37.1068 210.265 37.7906 214.18 35.6629L214.124 35.672C218.755 36.4053 223.861 37.1488 227.993 38.103C232.092 38.0864 236.912 37.3384 241.362 36.9423C243.41 36.9407 245.465 36.9389 247.519 36.9371L247.538 36.9371L247.553 36.9256C248.409 36.276 249.264 35.6265 250.119 34.9769L250.087 34.9879C251.627 34.9866 253.168 34.9854 254.709 34.9841L254.738 34.9841L254.753 34.9579C255.265 34.0204 255.778 33.0828 256.291 32.1452L256.247 32.17C264.834 32.6722 273.588 32.7533 281.915 34.9608L281.923 34.9642L281.932 34.9626C284.328 34.5286 286.725 34.0946 289.121 33.6607C291.168 33.8761 293.223 34.0912 295.277 34.3064C299.214 34.7368 303.152 35.1674 307.089 35.5981C309.659 35.597 312.226 35.5959 314.794 35.5949C318.69 34.7619 322.633 33.5177 326.602 33.6429C327.099 33.9484 327.675 33.6092 328.079 33.2969C328.501 32.9633 328.865 32.5603 329.179 32.1263C330.886 31.9124 332.598 31.6956 334.31 31.4789C336.022 31.19 337.734 30.9012 339.445 30.6125C341.155 31.1166 342.867 31.6208 344.579 32.1251C346.464 31.6201 348.347 31.1152 350.23 30.6103C353.139 31.8352 356.049 33.0604 358.959 34.2856C360.329 34.2855 361.699 34.2854 363.068 34.2853C364.951 34.7177 366.834 35.1502 368.717 35.5826C370.258 35.5826 371.798 35.5826 373.339 35.5826C373.352 35.5854 373.364 35.5883 373.377 35.5912C378.671 36.8138 383.965 38.0365 389.259 39.2591C394.389 35.9499 401.146 35.9129 406.72 38.1778C408.173 38.7594 409.605 39.3317 411.03 39.905C411.203 39.9752 411.445 40.0707 411.524 40.107C411.346 40.0381 411.161 39.9647 410.986 39.8956C410.623 39.7525 410.267 39.611 409.906 39.4679C409.186 39.1823 408.465 38.8959 407.747 38.6102C409.117 38.0337 410.486 37.457 411.855 36.8803C414.081 36.6641 416.306 36.4478 418.532 36.2316C420.415 36.0153 422.298 35.7991 424.181 35.5828C425.721 34.934 427.262 34.2852 428.803 33.6364C431.37 34.069 433.938 34.5016 436.506 34.9341C437.853 32.7226 440.792 32.462 443.182 32.1227C444.38 31.9065 445.579 31.6902 446.777 31.474C450.885 31.1857 454.994 30.8973 459.102 30.609C462.697 31.1137 466.292 31.6184 469.887 32.1231C470.571 32.4114 471.256 32.6997 471.941 32.9881C477.248 33.2045 482.554 33.4209 487.861 33.6372C489.573 34.5022 491.284 35.3673 492.996 36.2324C494.367 35.8 495.736 35.3675 497.105 34.935C498.988 35.3676 500.871 35.8001 502.754 36.2327C505.836 35.8002 508.917 35.3678 511.998 34.9353C515.664 33.5364 519.535 32.4038 522.784 30.177C524.323 30.466 525.864 30.7544 527.404 31.0428C529.117 31.0429 530.828 31.0429 532.54 31.043C534.594 31.3314 536.648 31.6198 538.703 31.9082C540.416 31.1151 542.127 30.3221 543.839 29.5292C546.919 30.0341 550.001 30.5388 553.082 31.0435C554.452 30.7551 555.822 30.4668 557.191 30.1785C558.387 30.9711 559.586 31.7641 560.784 32.5571C562.497 32.5577 564.209 32.5577 565.921 32.5578C567.461 33.1343 569.001 33.7111 570.542 34.2878C572.085 33.7112 573.625 33.1345 575.166 32.5578C576.362 33.3505 577.56 34.1435 578.758 34.9366C580.815 34.144 582.87 33.351 584.924 32.5581C586.633 33.3511 588.345 34.1441 590.056 34.9371C591.77 34.7212 593.482 34.505 595.194 34.2888C598.102 35.6583 601.012 37.0281 603.922 38.3979C605.635 38.6866 607.347 38.975 609.059 39.2634C611.286 38.6867 613.511 38.1101 615.737 37.5335C617.103 38.326 618.472 39.119 619.842 39.9121C621.728 39.408 623.611 38.9034 625.494 38.3989C627.203 38.9035 628.915 39.4082 630.627 39.9129C632.684 39.4084 634.738 38.9039 636.793 38.3993C637.821 37.8944 638.848 37.3898 639.875 36.8852C641.584 36.8858 643.296 36.8859 645.008 36.886C645.014 36.0151 645.014 35.15 645.014 34.285C648.775 33.8584 652.541 33.4261 656.307 32.9937C660.416 31.8402 664.525 30.687 668.633 29.5337C669.311 30.3246 669.996 31.1176 670.68 31.9106C673.083 31.6248 675.48 31.3365 677.876 31.0483C679.412 31.9125 680.953 32.7776 682.494 33.6428C684.209 33.6438 685.921 33.6439 687.633 33.644C688.657 34.1479 689.684 34.6525 690.711 35.1572C692.77 34.6533 694.825 34.1487 696.879 33.6442C698.585 34.3648 700.297 35.0858 702.009 35.8067C704.41 35.447 706.807 35.0866 709.203 34.7263C710.398 35.0865 711.596 35.447 712.794 35.8076C715.544 36.0338 718.376 36.0634 721.009 36.8882C722.727 36.6013 724.439 36.313 726.151 36.0248C727.687 36.5291 729.228 37.0338 730.768 37.5385C732.312 37.5391 733.853 37.5392 735.393 37.5393C738.306 36.7461 741.216 35.9533 744.126 35.1604C746.349 35.233 748.574 35.3052 750.799 35.3774C752.514 35.0168 754.226 34.6565 755.938 34.2961C757.138 33.7909 758.336 33.2864 759.535 32.7818C761.073 32.5664 762.613 32.3503 764.154 32.1341C765.185 31.556 766.212 30.9794 767.239 30.4027C769.287 30.4765 771.341 30.5487 773.396 30.6209C776.506 30.1343 779.727 29.899 782.648 28.672L782.635 28.674C784.176 29.3229 785.716 29.9718 787.257 30.6207C788.979 29.9722 790.69 29.3235 792.402 28.6748C794.618 29.5399 796.843 30.4052 799.069 31.2704C800.443 31.2714 801.813 31.2715 803.182 31.2716C804.547 31.7754 805.916 32.2801 807.285 32.7848C809.687 32.858 812.083 32.9302 814.48 33.0024C821.994 35.7729 830.276 35.5977 838.107 34.3014C841.528 34.2298 844.951 34.1579 848.375 34.0861C850.601 33.942 852.827 33.798 855.052 33.6539C856.429 32.9311 857.798 32.2103 859.168 31.4895C862.239 31.7081 865.321 31.9246 868.402 32.1411L868.408 32.1415L868.413 32.1384C869.611 31.4176 870.81 30.6968 872.008 29.976C873.715 29.4734 875.427 28.9689 877.139 28.4644C878.331 28.5374 879.529 28.6096 880.727 28.6817C882.444 28.3933 884.156 28.105 885.867 27.8168C888.601 28.0335 891.34 28.25 894.079 28.4664C895.627 28.0333 897.168 27.6009 898.709 27.1685L898.69 27.1649C899.717 27.9579 900.744 28.751 901.771 29.544L901.777 29.5485H901.784C903.838 29.5487 905.893 29.5488 907.947 29.549L907.935 29.5456C908.962 30.1945 909.989 30.8434 911.016 31.4922C913.249 31.928 915.475 32.3607 917.7 32.7934C918.55 33.224 919.406 33.6566 920.262 34.0892C922.152 34.3079 924.035 34.5243 925.918 34.7407C927.807 34.5246 929.69 34.3085 931.573 34.0924L931.558 34.0895C933.099 34.9547 934.64 35.8199 936.18 36.6851L936.188 36.6897L936.198 36.6876C938.081 36.2552 939.964 35.8228 941.847 35.3904C947.148 35.4636 952.454 35.5361 957.761 35.6086C959.306 35.3923 960.846 35.1761 962.387 34.96C964.091 35.2484 965.802 35.5369 967.514 35.8254C970.43 35.6818 973.34 35.5379 976.251 35.3939C978.651 34.9612 981.047 34.5289 983.444 34.0965C987.377 33.9531 991.314 33.8093 995.252 33.6655C996.967 33.3769 998.679 33.0887 1000.39 32.8005C1002.61 32.5847 1004.84 32.3686 1007.07 32.1526C1008.6 32.0807 1010.15 32.0088 1011.69 31.9368C1014.94 31.7208 1018.19 31.5049 1021.44 31.2889L1021.45 31.2883L1021.46 31.2835C1022.32 30.7069 1023.17 30.1303 1024.03 29.5536L1024.01 29.5591C1027.43 29.4873 1030.86 29.4156 1034.28 29.3438C1036.34 28.9108 1038.4 28.4784 1040.45 28.0461L1040.43 28.0451C1043.67 29.2559 1047.19 30.3304 1049.66 32.7912L1049.67 32.8032L1049.68 32.8053C1053.11 33.3103 1056.53 33.8153 1059.95 34.3202L1059.93 34.3111C1060.79 35.1042 1061.65 35.8972 1062.5 36.6903L1062.52 36.7029L1062.53 36.6991C1064.59 36.2668 1066.64 35.8344 1068.7 35.4021L1068.68 35.4004C1071.24 36.4099 1073.81 37.4194 1076.38 38.4289L1076.39 38.4337L1076.4 38.4298C1078.29 37.8533 1080.17 37.2768 1082.05 36.7003L1082.04 36.7019C1087.18 36.8466 1092.31 36.9913 1097.45 37.136L1097.47 37.1366L1097.48 37.1223C1098.16 36.3294 1098.85 35.5365 1099.53 34.7436L1099.54 34.7324V34.7175C1099.54 33.8524 1099.54 32.9873 1099.54 32.1223L1099.52 32.1579C1100.21 31.7975 1100.89 31.4371 1101.57 31.0768L1101.56 31.0814C1103.44 31.0095 1105.32 30.9376 1107.21 30.8657L1107.22 30.8637C1108.76 30.3592 1110.3 29.8548 1111.84 29.3503L1111.81 29.3491C1113.18 29.926 1114.55 30.5028 1115.92 31.0797L1115.94 31.083C1117.82 31.0111 1119.7 30.9392 1121.59 30.8673L1121.57 30.8628C1122.42 31.2954 1123.28 31.728 1124.13 32.1606L1124.15 32.1671L1124.16 32.1646C1126.56 31.7323 1128.95 31.3 1131.35 30.8677L1131.33 30.8673C1132.87 31.2279 1134.41 31.5885 1135.95 31.9491L1135.94 31.9435C1136.97 32.5924 1137.99 33.2413 1139.02 33.8902L1139.03 33.8958C1141.09 34.4007 1143.14 34.9055 1145.2 35.4104L1145.21 35.4133L1145.22 35.4099C1147.45 34.7613 1149.67 34.1128 1151.9 33.4642C1154.46 33.1777 1157.02 32.8896 1159.59 32.6016H1159.58C1162.15 32.8902 1164.72 33.1789 1167.29 33.4675L1167.3 33.4665C1168.5 33.1783 1169.7 32.89 1170.9 32.6018L1170.84 32.565C1171.01 33.358 1171.18 34.151 1171.35 34.944L1171.36 34.987L1171.4 34.9821C1173.97 34.694 1176.54 34.406 1179.11 34.1179L1179.1 34.1177C1181.15 34.4063 1183.2 34.6949 1185.26 34.9835L1185.24 34.9762C1186.95 36.0578 1188.66 37.1393 1190.37 38.2209L1190.39 38.2312L1190.41 38.2281C1192.63 37.8679 1194.86 37.5077 1197.08 37.1475L1197.06 37.1468C1199.77 37.7015 1202.62 37.895 1205.31 37.1469L1205.28 37.1482C1207.17 37.5089 1209.05 37.8696 1210.93 38.2303L1210.95 38.2304C1212.15 38.0142 1213.35 37.7981 1214.55 37.582C1216.93 37.5831 1219.33 37.5834 1221.73 37.5837L1221.74 37.5837L1221.76 37.5738C1222.27 37.2134 1222.79 36.853 1223.3 36.4926L1223.27 36.5022C1226.18 36.1421 1229.09 35.782 1232.01 35.4219C1233.89 35.2782 1235.77 35.1343 1237.65 34.9904L1237.67 34.9872C1238.86 34.5548 1240.06 34.1224 1241.26 33.69L1241.25 33.6932C1245.77 33.1892 1250.41 32.7547 1254.62 30.8765L1254.59 30.8833C1256.64 31.0998 1258.7 31.3164 1260.75 31.5329L1260.77 31.5324C1262.48 31.2443 1264.19 30.9561 1265.9 30.668L1265.92 30.6648L1265.94 30.6509C1266.79 29.7859 1267.65 28.921 1268.5 28.056L1268.44 28.0708C1270.32 28.7198 1272.21 29.3689 1274.09 30.0179L1274.11 30.0212C1277.87 30.2379 1281.64 30.4547 1285.4 30.6714C1287.81 30.5997 1290.2 30.528 1292.6 30.4562L1292.58 30.4545C1294.12 30.8152 1295.66 31.1758 1297.2 31.5365L1297.17 31.511C1297.68 32.232 1298.19 32.9529 1298.71 33.6739L1298.72 33.6923L1298.74 33.6986C1300.97 34.3477 1303.19 34.9968 1305.42 35.6459L1305.39 35.631C1306.25 36.4241 1307.1 37.2172 1307.96 38.0103L1307.98 38.0271L1308 38.0279C1312.11 38.1727 1316.22 38.3174 1320.33 38.4621C1322.39 38.3181 1324.44 38.1742 1326.5 38.0303L1326.52 38.0289L1326.53 38.0161C1327.56 37.2233 1328.59 36.4304 1329.62 35.6376L1329.57 35.6517C1332.99 36.0126 1336.41 36.3735 1339.84 36.7344L1339.86 36.7322C1341.4 36.2999 1342.94 35.8676 1344.49 35.4352L1344.45 35.437C1345.82 35.6535 1347.19 35.8699 1348.56 36.0864L1348.58 36.0896L1348.6 36.0816C1349.8 35.5772 1351 35.0727 1352.2 34.5683L1352.15 34.5719C1354.21 35.0768 1356.26 35.5817 1358.31 36.0866L1358.34 36.0937L1358.37 36.0788C1359.74 35.286 1361.11 34.4932 1362.48 33.7005L1362.43 33.7097C1364.48 33.9984 1366.54 34.287 1368.59 34.5757L1368.62 34.5794L1368.64 34.5655C1370.18 33.6285 1371.72 32.6916 1373.26 31.7547L1373.24 31.7647C1376.96 31.2339 1380.79 30.9361 1384.51 31.5498L1384.47 31.5281C1385.32 32.3933 1386.18 33.2585 1387.04 34.1236L1387.06 34.1438L1387.08 34.1465C1390.16 34.4353 1393.25 34.7241 1396.33 35.0129L1396.29 34.9971C1397.14 35.646 1398 36.295 1398.85 36.9439L1398.88 36.9614L1398.91 36.9601C1400.45 36.8882 1401.99 36.8163 1403.53 36.7445L1403.48 36.7321C1404.51 37.3811 1405.54 38.03 1406.56 38.679L1406.59 38.6978L1406.63 38.6888C1409.37 37.9684 1412.1 37.2479 1414.84 36.5274L1414.81 36.5289C1416.86 36.8896 1418.92 37.2504 1420.97 37.6111L1421.01 37.6083C1423.24 36.8878 1425.46 36.1672 1427.69 35.4467L1427.65 35.4504C1429.88 35.667 1432.1 35.8836 1434.33 36.1002L1434.36 36.0963C1435.91 35.592 1437.45 35.0876 1438.99 34.5832L1438.96 34.5875C1439.47 34.5875 1439.99 34.5876 1440.5 34.5877L1440.59 34.5877V34.5012C1440.59 30.4642 1440.59 26.4272 1440.59 22.3902V22.3019L1440.5 22.3019C1439.99 22.3018 1439.47 22.3017 1438.96 22.3017L1438.94 22.304C1437.4 22.6642 1435.86 23.0244 1434.32 23.3846L1434.34 23.3823C1430.92 23.3096 1427.49 23.237 1424.07 23.1644L1424.04 23.1639L1424.02 23.176C1422.99 23.7526 1421.97 24.3291 1420.94 24.9057L1421.02 24.9026C1419.48 24.1814 1417.94 23.4603 1416.4 22.7392L1416.34 22.7116L1416.3 22.7579C1415.44 23.6228 1414.59 24.4877 1413.73 25.3527L1413.83 25.3306C1412.63 24.8979 1411.43 24.4652 1410.23 24.0324L1410.21 24.0238L1410.18 24.0285C1408.64 24.3166 1407.1 24.6047 1405.56 24.8928H1405.6C1404.06 24.6042 1402.51 24.3156 1400.97 24.027L1400.93 24.0298C1399.56 24.4621 1398.19 24.8944 1396.82 25.3267L1396.89 25.3318C1395.69 24.7549 1394.49 24.1779 1393.3 23.601L1393.27 23.5895L1393.24 23.5919C1390.85 23.8078 1388.45 24.0237 1386.05 24.2395L1386.08 24.2403C1384.71 24.0238 1383.34 23.8074 1381.97 23.5909L1382.01 23.6075C1380.98 22.8864 1379.96 22.1654 1378.93 21.4443L1378.91 21.4264L1378.87 21.4264C1376.31 21.4259 1373.74 21.4255 1371.17 21.4251L1371.27 21.5252C1371.27 20.8043 1371.27 20.0834 1371.27 19.3625V19.2874L1371.2 19.2662C1369.49 18.7613 1367.78 18.2564 1366.06 17.7514L1366.12 17.8013C1365.78 17.1525 1365.44 16.5036 1365.1 15.8548L1365.08 15.8136L1365.03 15.8031C1363.15 15.3703 1361.26 14.9374 1359.38 14.5046L1359.42 14.5186C1357.53 13.2927 1355.65 12.0669 1353.77 10.8411L1353.73 10.8177L1353.69 10.8265C1350.61 11.4748 1347.53 12.1231 1344.44 12.7714L1344.46 12.7691C1341.21 12.8407 1337.96 12.9122 1334.71 12.9837L1334.73 12.986C1333.7 12.7696 1332.68 12.5531 1331.65 12.3367L1331.67 12.3418C1329.1 11.3321 1326.53 10.3224 1323.96 9.31275L1324.03 9.41419C1324.03 8.76539 1324.03 8.11658 1324.03 7.46778V7.40236L1323.98 7.37142C1323.11 6.90715 1322.25 6.42183 1321.41 5.91269C1320.99 5.65714 1320.58 5.39681 1320.18 5.11697C1319.98 4.9772 1319.78 4.83281 1319.6 4.67852C1319.5 4.59868 1319.42 4.5201 1319.35 4.43476C1319.32 4.39181 1319.29 4.34192 1319.29 4.33094C1319.29 4.34283 1319.27 4.34753 1319.32 4.33175C1319.38 4.31093 1319.53 4.31333 1319.53 4.11608C1319.5 3.9844 1319.44 3.95977 1319.39 3.91429C1319.3 3.83398 1319.2 3.77539 1319.1 3.71842C1318.9 3.60541 1318.69 3.50752 1318.49 3.41308C1318.08 3.22494 1317.66 3.05417 1317.24 2.88792C1316.41 2.55764 1315.56 2.24863 1314.72 1.95588L1314.78 2.00916C1314.44 1.3603 1314.09 0.711435 1313.75 0.0625724L1313.72 1.06618e-05L1313.65 0.0031324C1310.4 0.146744 1307.14 0.290353 1303.89 0.43396L1303.85 0.445466C1302.82 0.94991 1301.79 1.45435 1300.76 1.9588L1300.7 1.99008V2.06109C1300.7 2.78198 1300.7 3.50288 1300.7 4.22377L1300.8 4.11009C1297 4.69071 1293.04 4.52449 1289.42 6.24242C1289.76 6.94791 1289.27 7.94144 1288.9 8.71083L1288.99 8.64883C1287.11 8.79267 1285.23 8.93651 1283.34 9.08035L1283.32 9.08587C1280.31 10.0622 1277.04 11.098 1274.23 11.7931V11.5192L1274.03 11.7054C1273.17 12.4982 1272.32 13.291 1271.46 14.0838L1271.53 14.0525C1269.47 14.2684 1267.42 14.4842 1265.37 14.7001L1265.4 14.7021C1263.69 14.3413 1261.98 13.9806 1260.27 13.6198L1260.23 13.6185C1257.83 13.9786 1255.43 14.3386 1253.04 14.6986L1253.06 14.6974C1249.12 14.4804 1245.19 14.2634 1241.25 14.0464L1241.17 14.0422L1241.13 14.1078C1240.62 14.9728 1240.11 15.8378 1239.59 16.7027L1239.7 16.6409C1237.48 16.6404 1235.25 16.64 1233.03 16.6396L1232.97 16.6396L1232.94 16.6753C1231.53 17.9456 1230.08 19.4885 1228.4 20.0988C1224.47 20.0981 1220.52 20.0973 1216.59 20.0966L1216.55 20.1027C1215.18 20.5349 1213.81 20.9672 1212.44 21.3995L1212.5 21.3943C1209.42 21.0332 1206.34 20.6722 1203.25 20.3112L1203.3 20.3274C1202.79 20.0389 1202.28 19.7505 1201.76 19.462L1201.72 19.4464C1199.84 19.1577 1197.95 18.869 1196.07 18.5803L1196.12 18.5996C1195.09 17.9506 1194.07 17.3016 1193.04 16.6526L1193 16.626L1192.95 16.6329C1190.9 16.9209 1188.84 17.2088 1186.79 17.4968L1186.86 17.5075C1184.59 16.5074 1181.97 15.175 1180.13 14.3105C1178.8 14.3109 1176.69 15.0259 1174.97 15.3332L1175.07 15.3528C1172.89 14.0134 1170.87 12.4832 1168.32 11.6522C1167.14 11.6113 1165.93 11.4097 1164.75 11.2209L1164.77 11.2255C1163.4 10.7927 1162.03 10.3599 1160.66 9.9271C1159.79 9.70839 1158.94 9.49195 1158.08 9.27551L1158.04 9.26617L1158.01 9.27648C1156.47 9.70871 1154.93 10.1409 1153.39 10.5732L1153.41 10.5689C1151.69 10.7849 1149.98 11.0008 1148.27 11.2167C1146.72 11.5061 1145.18 11.7942 1143.64 12.0822C1138.33 12.9162 1132.97 13.0736 1127.69 14.7421C1124.3 14.108 1120.54 14.1487 1116.97 13.8049L1116.93 13.8071C1115.05 14.1672 1113.17 14.5273 1111.28 14.8873L1111.33 14.8853C1108.55 14.5205 1105.48 14.2933 1103.2 12.7644L1103.16 12.7213L1103.1 12.7202C1098.79 12.7142 1094.6 12.4102 1090.16 12.9707L1090.31 12.9433C1086.49 11.6547 1082.55 10.3689 1078.43 10.5532L1078.4 10.5591C1077.2 10.9193 1076 11.2795 1074.81 11.6397L1074.85 11.633C1072.79 11.7046 1070.74 11.7763 1068.68 11.848C1065.6 12.0639 1062.51 12.2795 1059.43 12.4951L1059.48 12.4977C1057.25 12.0647 1055.03 11.6317 1052.8 11.1987L1052.73 11.1992C1050.68 11.6313 1048.63 12.0634 1046.57 12.4955L1046.5 12.5272C1045.3 13.4641 1044.11 14.401 1042.91 15.338L1043 15.3026C1041.46 15.3744 1039.92 15.4462 1038.38 15.5179L1038.42 15.5213C1037.05 15.2327 1035.68 14.944 1034.32 14.6554L1034.26 14.6529C1032.38 14.8687 1030.5 15.0846 1028.61 15.3005L1028.66 15.302C1027.46 15.0855 1026.27 14.869 1025.07 14.6525L1024.98 14.6582C1023.44 15.1625 1021.9 15.6668 1020.36 16.1711L1020.47 16.1706C1019.1 15.7377 1017.73 15.3049 1016.36 14.8721L1016.27 14.867C1014.73 15.155 1013.19 15.443 1011.65 15.7311L1011.71 15.7305C1010 15.4418 1008.29 15.153 1006.58 14.8643L1006.51 14.8656C1004.46 15.2977 1002.4 15.7298 1000.35 16.1619L1000.41 16.1601C998.53 15.8714 996.647 15.5826 994.764 15.2938L994.718 15.2928C989.309 16.0806 983.655 16.2531 978.685 19.0212L978.866 18.9714C976.812 18.3943 974.758 17.8171 972.704 17.2399L972.641 17.2336C970.587 17.3773 968.533 17.521 966.479 17.6647L966.42 17.6787C965.393 18.111 964.366 18.5433 963.339 18.9756L963.454 18.9663C962.255 18.6776 961.057 18.389 959.859 18.1004H959.772C958.574 18.3885 957.375 18.6766 956.177 18.9646L956.216 18.9595C953.135 19.0309 950.054 19.1023 946.972 19.1737L947.001 19.1752C944.263 18.8142 941.524 18.4531 938.785 18.092L938.721 18.0945C937.351 18.3826 935.982 18.6706 934.612 18.9586L934.692 18.9589C929.868 18.043 925.332 16.579 920.119 16.6462L920.421 16.6411C919.565 15.6317 918.709 14.6222 917.854 13.6128L917.803 13.5529L917.725 13.5446C915.671 13.3279 913.616 13.1112 911.562 12.8944L911.501 12.8976C909.447 13.3296 907.392 13.7617 905.338 14.1937L905.482 14.2179C904.283 13.4968 903.085 12.7756 901.887 12.0544L901.809 12.0073L901.722 12.0357C900.181 12.54 898.64 13.0443 897.1 13.5485L897.189 13.5403C893.936 13.107 890.684 12.6737 887.431 12.2404L887.329 12.2267L887.257 12.3019C886.572 13.0227 885.887 13.7434 885.203 14.4641L885.366 14.4012C883.483 14.2566 881.6 14.112 879.717 13.9673L879.701 13.9667C878.161 13.9664 876.62 13.966 875.079 13.9656L874.983 13.9894C873.614 14.71 872.244 15.4305 870.874 16.1511L870.981 16.1274C869.44 16.055 867.899 15.9825 866.359 15.9101L866.32 15.9119C864.266 16.1997 862.211 16.4876 860.157 16.7755L860.23 16.7779C859.545 16.6336 858.86 16.4893 858.176 16.3449L858.084 16.3459C856.543 16.706 855.003 17.0661 853.462 17.4262L853.476 17.4233C850.63 17.7921 847.519 18.3304 844.879 17.4431L844.988 17.5829C844.817 16.862 844.646 16.1411 844.475 15.4201L844.436 15.2553L844.266 15.2553C842.383 15.2548 840.5 15.2544 838.617 15.2539L838.798 15.3524C838.285 14.5593 837.772 13.7662 837.258 12.9731L837.209 12.8965L837.119 12.8785C833.168 12.2064 829.396 11.0819 825.148 11.3914L825.294 11.3594C821.102 10.8136 815.896 7.92144 816.755 3.17415L816.773 3.05181L816.678 2.97209C815.993 2.39521 815.309 1.81832 814.624 1.24144L814.546 1.17542L814.445 1.19179C812.219 1.55169 809.994 1.91158 807.768 2.27148H807.84C805.615 1.91048 803.389 1.54949 801.164 1.18849L801.101 1.18719C799.903 1.33107 798.704 1.47495 797.506 1.61883L797.42 1.6291L797.363 1.69345C796.849 2.27004 796.336 2.84662 795.822 3.42321L795.992 3.34677C793.596 3.34617 791.199 3.34557 788.803 3.34497L788.683 3.34494L788.614 3.44327C787.758 4.66857 786.902 5.89388 786.045 7.11918L786.289 7.02681C785.091 6.73815 783.893 6.4495 782.694 6.16084L782.616 6.14193L782.543 6.17589C780.83 6.96844 779.118 7.76099 777.406 8.55354L777.507 8.53193C770.803 8.49259 764.24 8.29655 757.383 8.54554C756.014 9.12175 754.643 9.69867 753.275 10.2746L753.19 10.3101L753.151 10.3927C752.809 11.1135 752.466 11.8343 752.123 12.5551L752.312 12.4196C748.481 12.9772 744.787 13.1014 740.852 14.4536C740.553 14.8284 740.212 15.1918 739.858 15.4996L739.921 15.4614C739.065 15.8216 738.209 16.1819 737.353 16.5421L737.317 16.5607C736.975 16.7769 736.632 16.9931 736.29 17.2092L736.42 17.1714C732.826 17.1705 729.231 17.1696 725.636 17.1686L725.68 17.1726C724.482 16.956 723.283 16.7394 722.085 16.5228L721.983 16.5258C720.784 16.8138 719.586 17.1019 718.388 17.3899L718.438 17.3831C714.479 17.4163 710.406 16.9366 706.732 15.4532L706.859 15.5714C706.346 14.562 705.833 13.5527 705.32 12.5433L705.254 12.4145L705.11 12.4053C701.189 12.1037 697.106 11.96 693.382 11.1242L693.315 11.0961L693.243 11.107C691.36 11.3949 689.477 11.6827 687.594 11.9706L687.642 11.9678C683.705 11.8226 679.768 11.6773 675.831 11.5321L675.733 11.5474C674.534 11.9797 673.336 12.4119 672.137 12.8441L672.246 12.8293C670.363 12.6846 668.48 12.5399 666.597 12.3952L666.553 12.3956C665.012 12.5394 663.471 12.6831 661.931 12.8269L661.803 12.8388L661.733 12.9467C661.219 13.7395 660.705 14.5324 660.192 15.3252L660.415 15.2039C658.189 15.2033 655.964 15.2027 653.738 15.2021L653.569 15.2021L653.497 15.3549C653.154 16.0757 652.812 16.7965 652.469 17.5173L652.563 17.4087C650.182 18.8568 647.31 19.6382 644.507 19.5248L644.405 19.5398C642.351 20.2601 640.296 20.9804 638.242 21.7008L638.332 21.6854C636.107 21.6848 633.881 21.6842 631.656 21.6836L631.772 21.7094C630.231 20.9881 628.691 20.2668 627.151 19.5455L627.057 19.5015L626.957 19.5305C624.289 20.2537 621.481 21.1555 618.856 21.25C616.589 21.027 614.375 21.0474 612.141 21.0292L612.048 21.045C609.994 21.7653 607.939 22.4857 605.885 23.206L606.17 23.2661C604.63 21.8239 603.09 20.3816 601.55 18.9394L601.479 18.8733L601.383 18.8642C598.301 18.575 595.22 18.2858 592.139 17.9966L592.168 18.0008C589.258 17.4233 586.348 16.8457 583.438 16.2682L583.382 16.2627C582.012 16.2623 580.643 16.262 579.273 16.2616L579.355 16.2734C577.644 15.7683 575.932 15.2632 574.22 14.7581L574.198 14.7524C571.801 14.2471 569.405 13.7418 567.009 13.2365L566.812 13.195L566.702 13.364C566.188 14.1568 565.675 14.9497 565.161 15.7425L565.341 15.616C561.917 16.408 558.493 17.2 555.07 17.992L555.021 18.0076C552.967 18.8721 550.912 19.7366 548.858 20.6011L548.974 20.5776C545.721 20.5767 542.469 20.5758 539.216 20.5749L539.169 20.5785C537.8 20.7944 536.43 21.0103 535.061 21.2262L535.211 21.2404C534.013 20.8076 532.814 20.3747 531.616 19.9418L531.576 19.9303C530.206 19.6415 528.837 19.3528 527.468 19.064L527.346 19.0632C524.778 19.5671 522.21 20.071 519.642 20.5749L519.875 20.6228C518.506 19.6852 517.137 18.7477 515.767 17.8101L515.661 17.7375L515.535 17.7617C513.652 18.1216 511.769 18.4815 509.886 18.8414L509.96 18.8363C507.221 18.6913 504.482 18.5463 501.743 18.4013L501.936 18.4806C499.559 16.4975 496.743 14.8222 493.51 14.7217L493.649 14.754C492.622 14.2491 491.595 13.7442 490.568 13.2392L490.471 13.1911L490.364 13.2136C488.994 13.5015 487.625 13.7895 486.255 14.0775L486.377 14.0757C483.98 13.6424 481.584 13.2092 479.188 12.776L479.059 12.779C477.176 13.211 475.293 13.643 473.41 14.0749L473.494 14.067C466.133 13.7765 458.773 13.4859 451.412 13.1954L451.526 13.2209C448.788 12.0666 446.049 10.9124 443.311 9.75811L443.344 9.77454C442.317 9.19752 441.29 8.62049 440.263 8.04347L440.156 8.00559C438.444 7.71672 436.732 7.42784 435.021 7.13897L435.169 7.20385C434.142 6.41056 433.115 5.61727 432.088 4.82398L432.02 4.77072L431.933 4.75786C428.674 4.29095 425.479 3.76443 422.126 3.45364C420.277 3.75201 418.895 4.52941 417.357 5.21582L417.556 5.18618C415.673 4.89725 413.79 4.60832 411.907 4.31939L411.769 4.32669C410.399 4.68672 409.03 5.04675 407.66 5.40678L407.467 5.45745L407.416 5.65036C407.245 6.29911 407.073 6.94786 406.902 7.59661L407.107 7.36542C404.197 8.51795 401.286 9.67049 398.376 10.823L398.238 10.9223C397.079 12.2436 395.672 13.9337 394.395 14.4735C391.88 14.3394 389.279 14.063 386.725 13.824L386.579 13.8097L386.466 13.9046C386.124 14.1928 385.781 14.4811 385.439 14.7693L385.851 14.7411C385.509 14.5248 385.167 14.3084 384.824 14.092L384.747 14.0432L384.656 14.0383C383.286 13.9658 381.917 13.8933 380.547 13.8208L380.558 13.8215C377.991 13.6045 375.423 13.3874 372.855 13.1703L372.82 13.1691C368.369 13.2399 363.918 13.3106 359.467 13.3813L359.81 13.6166C359.468 12.6793 359.126 11.742 358.783 10.8048L358.703 10.5848L358.469 10.5695C356.244 10.4247 354.019 10.2798 351.793 10.1349L352.102 10.3523C350.924 7.88898 349.117 5.37807 346.185 4.73071L346.281 5.41546C347.309 4.91115 348.336 4.40685 349.363 3.90255L349.181 3.21057C344.735 3.73022 339.942 3.40186 336.046 6.63048L336.14 6.52471C335.284 7.17324 334.428 7.82177 333.572 8.4703L333.772 8.39588C331.546 8.53935 329.321 8.68282 327.095 8.82629L326.961 8.83495L326.863 8.92759C326.178 9.57618 325.493 10.2248 324.808 10.8733L325.034 10.7723C323.322 10.916 321.61 11.0596 319.898 11.2032L319.5 11.2366L319.559 11.6319C319.73 12.7854 319.9 13.9389 320.071 15.0924L320.488 14.6638C318.092 14.3746 315.695 14.0855 313.299 13.7964L313.198 13.7978C310.288 14.2294 307.377 14.661 304.467 15.0926L304.552 15.0896C302.669 14.9448 300.786 14.8 298.903 14.6552L298.725 14.6841C297.184 15.3324 295.644 15.9807 294.103 16.629L294.252 16.5989C292.711 16.5984 291.171 16.5979 289.63 16.5974L289.889 16.6969C288.691 15.6151 287.493 14.5334 286.295 13.4517L286.17 13.3388L286.002 13.3532C279.402 14.2272 273.053 13.5544 266.211 16.3631L266.31 15.7852C265.282 16.4337 264.255 17.0821 263.228 17.7306L263.541 17.683C261.658 17.1777 259.776 16.6725 257.893 16.1673L257.769 16.1341L257.649 16.1795C255.937 16.8277 254.225 17.476 252.513 18.1242L252.854 18.152C251.485 17.3586 250.116 16.5652 248.747 15.7717L248.61 15.6927L248.456 15.728C246.573 16.1599 244.69 16.5918 242.807 17.0237L243.018 17.0322C241.649 16.5992 240.279 16.1662 238.91 15.7332L238.795 15.6969L238.679 15.7295C237.138 16.1615 235.598 16.5935 234.057 17.0256L234.166 17.0105C232.626 17.01 231.085 17.0094 229.544 17.0089L229.754 17.0672C228.556 16.3459 227.358 15.6246 226.16 14.9033L226.043 14.8328L225.907 14.8471C224.537 14.9908 223.168 15.1346 221.798 15.2783L221.757 15.2848C220.387 15.5727 219.018 15.8606 217.648 16.1485L217.844 16.155C216.303 15.7219 214.763 15.2889 213.222 14.8558L213.026 14.8493C211.656 15.1372 210.287 15.4251 208.917 15.713L209.051 15.7069C205.663 15.2249 201.703 14.8897 199.059 13.4802L199.109 13.5602C198.938 13.1997 198.767 12.8392 198.596 12.4787L198.482 12.24L198.218 12.2399C195.333 12.1908 192.312 12.14 189.622 11.3939C185.417 10.8496 181.797 12.2911 178.059 13.3348L178.277 13.3234C176.223 12.8902 174.169 12.457 172.115 12.0237L171.96 12.0198C167.769 12.556 163.459 12.6445 159.188 12.659L159.02 12.6928C157.822 13.197 156.623 13.7012 155.425 14.2054L155.593 14.1715C153.881 14.1709 152.169 14.1703 150.457 14.1697L150.39 14.1751C149.02 14.3908 147.651 14.6066 146.281 14.8224L146.198 14.844C144.829 15.3482 143.459 15.8523 142.089 16.3565L142.195 16.3319C140.825 16.4756 139.456 16.6193 138.086 16.763L138.193 16.7648C136.653 16.548 135.112 16.3312 133.572 16.1144L133.913 16.3717C133.4 15.2181 132.887 14.0645 132.374 12.9109L132.33 13.3473C132.844 12.6266 133.357 11.9059 133.871 11.1852L134.325 10.5482L133.545 10.4863C132.246 10.3808 130.935 10.2197 129.642 10.0109C127.694 9.65438 125.395 9.3253 124.086 8.25209L124.199 8.54912C124.2 7.68405 124.2 6.81898 124.2 5.95391L124.2 5.50652L123.753 5.50637C120.158 5.50511 116.563 5.50385 112.968 5.50259L113.124 5.53043C111.755 5.02532 110.386 4.52022 109.016 4.01511L108.899 3.97196L108.776 3.99491C107.236 4.28273 105.695 4.57055 104.154 4.85836L104.395 4.87863C103.026 4.37353 101.656 3.86842 100.287 3.36331L100.143 3.31017L99.9958 3.35518C96.44 4.61907 91.8583 5.22263 89.2914 7.03525C89.3195 7.14578 89.1412 7.44233 88.9635 7.46186C88.7886 7.49724 88.7664 7.4644 88.7293 7.4595C88.6625 7.43635 88.6659 7.43175 88.6531 7.42506C88.6398 7.41594 88.6452 7.4189 88.6503 7.42431C88.6619 7.43574 88.6809 7.45936 88.6963 7.48452C88.7283 7.53622 88.7528 7.59945 88.7655 7.66654C88.7914 7.802 88.7713 7.95775 88.7048 8.12409C88.5715 8.45745 88.2769 8.78788 87.9399 9.07657C87.2498 9.6597 86.4234 10.1034 85.5556 10.5086L85.6947 10.4691C84.4963 10.6129 83.298 10.7566 82.0996 10.9004L82.2803 10.9143C80.7398 10.4812 79.1993 10.0481 77.6588 9.61505L77.5155 9.57475L77.3751 9.62537C76.1767 10.0575 74.9782 10.4896 73.7798 10.9217L73.9382 10.894C72.3975 10.8934 70.8569 10.8929 69.3162 10.8923L69.1813 10.9122C67.9829 11.2722 66.7845 11.6322 65.5861 11.9922L65.7866 11.9769C64.2461 11.7601 62.7055 11.5432 61.1649 11.3264H61.0339C59.4931 11.5421 57.9524 11.7579 56.4117 11.9736L56.5105 11.9701C54.4564 11.8252 52.4022 11.6803 50.3481 11.5354L50.1765 11.5233L50.0367 11.6241C48.8381 12.4888 47.6395 13.3534 46.4409 14.218L46.4507 14.2111C45.0809 15.1478 43.7111 16.0845 42.3412 17.0211L42.8671 17.0115C41.8402 16.3623 40.8134 15.7131 39.7865 15.064L39.9637 15.2638C39.6216 14.5428 39.2795 13.8218 38.9374 13.1008L38.8373 12.8899L38.6094 12.8382C36.3842 12.3327 34.159 11.8273 31.9338 11.3219L31.7497 11.3161C29.5241 11.6758 27.2986 12.0354 25.0731 12.395L25.3187 12.4187C23.9494 11.9136 22.5801 11.4085 21.2108 10.9034L21.0595 10.8476L20.9045 10.8932C19.1925 11.3972 17.4805 11.9012 15.7685 12.4052L15.5398 12.4725L15.4519 12.6944C15.1092 13.5594 14.7665 14.4243 14.4239 15.2893L14.5889 15.075C13.9039 15.5794 13.219 16.0838 12.5341 16.5881L12.7324 16.5013C8.6237 17.2928 4.51499 18.0842 0.406286 18.8757L0.00461471 18.9531L0.0044643 19.3625C0.00306055 23.1832 0.00165385 27.0039 0.000244141 30.8247C0.333577 30.8247 0.666911 30.8247 1.00024 30.8247C0.998834 27.0039 0.997428 23.1832 0.996024 19.3625L0.594202 19.8493C4.70233 19.0548 8.81045 18.2603 12.9186 17.4658L13.1169 17.379C13.8014 16.8741 14.486 16.3692 15.1705 15.8643L15.2839 15.7807L15.3355 15.6501C15.6776 14.7849 16.0197 13.9197 16.3617 13.0545L16.0451 13.3437C17.7568 12.8385 19.4685 12.3332 21.1801 11.828L20.8738 11.8178C22.2435 12.3219 23.6132 12.8261 24.9828 13.3302L25.1027 13.3743L25.2284 13.3539C27.4537 12.9926 29.6789 12.6314 31.9042 12.2701L31.7201 12.2644C33.9456 12.7682 36.1712 13.272 38.3968 13.7758L38.0688 13.5132C38.4115 14.234 38.7541 14.9548 39.0967 15.6755L39.1565 15.8013L39.2739 15.8754C40.3013 16.5238 41.3286 17.1723 42.3559 17.8207L42.6222 17.9888L42.8818 17.811C44.2509 16.8734 45.62 15.9357 46.9892 14.9981L46.999 14.9912C48.197 14.1257 49.395 13.2602 50.5929 12.3947L50.2815 12.4834C52.3358 12.6268 54.39 12.7703 56.4443 12.9137L56.5432 12.9103C58.0837 12.6935 59.6243 12.4767 61.1649 12.2598H61.0339C62.5746 12.4755 64.1153 12.6913 65.6561 12.907L65.8566 12.8916C67.0548 12.5308 68.2529 12.1699 69.4511 11.809L69.3162 11.8289C70.8569 11.8283 72.3975 11.8278 73.9382 11.8272L74.0966 11.7995C75.2947 11.3665 76.4929 10.9336 77.691 10.5006L77.4073 10.5109C78.9481 10.9429 80.4889 11.3749 82.0297 11.8069L82.2104 11.8208C83.4086 11.6762 84.6069 11.5316 85.8051 11.387L85.9442 11.3475C86.8554 10.9191 87.7299 10.4596 88.5405 9.77672C88.9365 9.43066 89.3249 9.03608 89.5608 8.4651C89.6751 8.17908 89.7365 7.84167 89.6701 7.49401C89.6373 7.32247 89.5747 7.15458 89.4789 6.99966C89.431 6.9227 89.3745 6.84695 89.301 6.7732C89.2633 6.7359 89.2206 6.69704 89.1593 6.6563C89.1163 6.63043 89.1022 6.61496 89.0005 6.57993C88.9492 6.57095 88.9131 6.53452 88.7219 6.57374C88.53 6.59693 88.3428 6.90511 88.371 7.03525C88.3624 7.26749 88.5712 7.43945 88.6512 7.46274C88.7429 7.50069 88.7868 7.5 88.8232 7.50367C88.8562 7.5055 88.8709 7.50483 88.8902 7.50416C88.9248 7.50271 88.9587 7.49868 88.9818 7.49556C89.0182 7.49062 89.0551 7.48433 89.0956 7.47669C89.1588 7.46476 89.2309 7.44908 89.2908 7.43548C89.4148 7.40723 89.5325 7.37817 89.6617 7.34543C89.8951 7.28611 90.1468 7.21864 90.3773 7.15572C90.8547 7.02529 91.3274 6.8914 91.7996 6.75612C92.7445 6.48509 93.6862 6.20813 94.628 5.92865C96.5085 5.3701 98.3913 4.80079 100.263 4.22728L99.9717 4.21915C101.341 4.72329 102.711 5.22743 104.081 5.73158L104.198 5.77492L104.321 5.75185C105.862 5.46295 107.402 5.17405 108.943 4.88516L108.703 4.86496C110.073 5.3691 111.442 5.87324 112.812 6.37739L112.968 6.40522C116.563 6.40396 120.158 6.4027 123.753 6.40145L123.305 5.95391C123.306 6.81898 123.306 7.68405 123.306 8.54912L123.306 8.71931L123.419 8.84614C125.36 10.39 127.452 10.4672 129.5 10.8884C130.819 11.1004 132.145 11.2627 133.475 11.3698L133.149 10.671C132.636 11.392 132.123 12.1131 131.609 12.8342L131.463 13.04L131.566 13.2706C132.08 14.4238 132.594 15.5771 133.107 16.7303L133.207 16.9537L133.449 16.9876C134.99 17.2033 136.53 17.4191 138.071 17.6348L138.178 17.6367C139.548 17.492 140.917 17.3473 142.286 17.2027L142.392 17.1781C143.761 16.673 145.131 16.1679 146.5 15.6628L146.417 15.6844C147.786 15.4676 149.156 15.2509 150.525 15.0342L150.457 15.0395C152.169 15.0389 153.881 15.0383 155.593 15.0377L155.761 15.0038C156.959 14.4987 158.157 13.9937 159.355 13.4887L159.188 13.5225C163.493 13.5033 167.776 13.4191 172.093 12.8641L171.939 12.8601C173.993 13.292 176.047 13.7238 178.102 14.1556L178.212 14.1789L178.32 14.1443C181.917 13.097 185.876 11.74 189.353 12.1924C192.327 13.0081 195.259 13.0203 198.218 13.0765L197.84 12.8377C198.011 13.1981 198.183 13.5584 198.354 13.9188L198.404 13.9989C201.947 16.0097 205.41 15.956 208.954 16.53L209.088 16.5239C210.457 16.2351 211.827 15.9463 213.196 15.6575L212.999 15.651C214.54 16.083 216.081 16.515 217.622 16.947L217.818 16.9535C219.187 16.6647 220.556 16.3759 221.926 16.0871L221.884 16.0936C223.254 15.949 224.623 15.8043 225.992 15.6597L225.739 15.6035C226.938 16.324 228.136 17.0445 229.335 17.765L229.432 17.8233L229.544 17.8232C231.085 17.8227 232.626 17.8222 234.166 17.8217L234.276 17.8066C235.817 17.3736 237.357 16.9405 238.898 16.5075L238.667 16.5037C240.036 16.9358 241.406 17.3679 242.776 17.8L242.88 17.833L242.987 17.8085C244.87 17.3753 246.753 16.9421 248.636 16.509L248.345 16.4652C249.715 17.2578 251.085 18.0503 252.454 18.8428L252.619 18.9378L252.796 18.8706C254.507 18.2213 256.219 17.5719 257.931 16.9225L257.687 16.9348C259.57 17.4388 261.453 17.9428 263.337 18.4468L263.504 18.4916L263.65 18.3992C264.677 17.75 265.704 17.1009 266.731 16.4517L267.101 16.2174L266.829 15.8738C272.579 15.7446 279.644 14.5803 286.069 14.1258L285.775 14.0274C286.974 15.1084 288.173 16.1893 289.371 17.2703L289.482 17.3698L289.63 17.3697C291.171 17.3692 292.711 17.3687 294.252 17.3682L294.401 17.3381C295.942 16.6888 297.482 16.0395 299.023 15.3902L298.845 15.4191C300.728 15.5627 302.611 15.7062 304.494 15.8498L304.579 15.8468C307.489 15.4133 310.399 14.9798 313.309 14.5464L313.208 14.5478C315.605 14.8353 318.002 15.1229 320.398 15.4105L320.888 15.4692L320.815 14.9819C320.644 13.8286 320.472 12.6752 320.301 11.5218L319.961 11.9505C321.673 11.8058 323.385 11.661 325.096 11.5163L325.227 11.5053L325.322 11.4153C326.006 10.7663 326.691 10.1173 327.375 9.46825L327.143 9.56955C329.369 9.42466 331.594 9.27977 333.819 9.13489L333.931 9.12765L334.019 9.06047C334.875 8.4114 335.731 7.76232 336.586 7.11325L336.681 7.00747C339.772 4.45008 344.928 4.36161 349.223 3.93936L349.041 3.24738C348.014 3.75232 346.987 4.25727 345.96 4.76222L344.967 5.25052L346.056 5.44696C348.539 5.95833 350.356 8.33352 351.438 10.6388L351.526 10.8419L351.746 10.8561C353.972 10.9996 356.197 11.1431 358.423 11.2866L358.109 11.0513C358.451 11.9884 358.794 12.9254 359.137 13.8625L359.224 14.102L359.479 14.0978C363.93 14.0243 368.38 13.9509 372.831 13.8774L372.796 13.8762C375.364 14.0917 377.931 14.3071 380.499 14.5226L380.51 14.5234C381.88 14.595 383.249 14.6667 384.619 14.7384L384.45 14.6847C384.792 14.9008 385.135 15.117 385.477 15.3332L385.694 15.47L385.89 15.3049C386.232 15.0165 386.574 14.728 386.917 14.4396L386.658 14.5201C389.231 14.7584 391.766 15.0312 394.395 15.1682C396.571 14.3219 397.459 12.7517 398.768 11.3663L398.63 11.4656C401.54 10.3113 404.45 9.15699 407.36 8.00268L407.521 7.9388L407.565 7.77149C407.736 7.12263 407.907 6.47378 408.078 5.82492L407.834 6.0685C409.203 5.70764 410.573 5.34678 411.942 4.98591L411.804 4.99321C413.687 5.28099 415.57 5.56878 417.453 5.85656L417.557 5.87244L417.652 5.82692C419.108 5.15741 420.711 4.36158 422.126 4.12883C425.3 4.42636 428.605 4.95693 431.835 5.41982L431.68 5.3537C432.707 6.14637 433.734 6.93904 434.762 7.73171L434.91 7.79659C436.622 8.08443 438.334 8.37227 440.046 8.66011L439.938 8.62223C440.966 9.19863 441.993 9.77504 443.02 10.3514L443.054 10.3679C445.793 11.5205 448.532 12.6731 451.272 13.8257L451.386 13.8512C458.747 14.1373 466.108 14.4235 473.469 14.7097L473.554 14.7017C475.437 14.2687 477.319 13.8356 479.202 13.4025L479.074 13.4055C481.471 13.8373 483.867 14.2692 486.264 14.701L486.386 14.6992C487.755 14.4105 489.125 14.1217 490.494 13.833L490.289 13.8073C491.317 14.3116 492.344 14.816 493.371 15.3203L493.51 15.3526C496.453 15.4264 499.258 17.0494 501.518 18.9468L501.601 19.0203L501.711 19.026C504.45 19.1694 507.189 19.3128 509.928 19.4562L510.002 19.4511C511.885 19.0901 513.768 18.7291 515.651 18.3681L515.419 18.3197C516.788 19.2564 518.158 20.1932 519.528 21.1299L519.634 21.2027L519.761 21.1779C522.328 20.6725 524.896 20.1671 527.464 19.6618L527.342 19.661C528.711 19.9489 530.081 20.2369 531.451 20.5248L531.41 20.5133C532.608 20.9455 533.807 21.3777 535.005 21.8099L535.155 21.8242C536.525 21.6075 537.894 21.3908 539.263 21.1742L539.216 21.1779C542.469 21.1769 545.721 21.176 548.974 21.1751L549.09 21.1517C551.144 20.286 553.198 19.4204 555.252 18.5547L555.203 18.5703C558.627 17.7764 562.05 16.9824 565.474 16.1885L565.59 16.1616L565.654 16.0619C566.167 15.2688 566.681 14.4757 567.194 13.6826L566.888 13.81C569.285 14.314 571.681 14.8179 574.078 15.3219L574.056 15.3162C575.768 15.8204 577.48 16.3245 579.192 16.8287L579.273 16.8405C580.643 16.8401 582.012 16.8397 583.382 16.8393L583.326 16.8338C586.236 17.4097 589.146 17.9856 592.057 18.5615L592.086 18.5657C595.167 18.8532 598.248 19.1407 601.33 19.4282L601.163 19.353C602.704 20.7944 604.245 22.2357 605.786 23.6771L605.91 23.7937L606.071 23.7372C608.125 23.0157 610.179 22.2942 612.233 21.5728L612.141 21.5886C614.354 21.6041 616.615 21.5885 618.778 21.8003C621.763 21.6996 624.379 20.7881 627.111 20.0595L626.917 20.0446C628.458 20.765 629.999 21.4855 631.54 22.206L631.656 22.2318C633.881 22.2312 636.107 22.2306 638.332 22.23L638.422 22.2146C640.476 21.4932 642.53 20.7717 644.584 20.0503L644.482 20.0653C647.423 20.1751 650.338 19.3872 652.859 17.856L652.922 17.8148L652.954 17.7474C653.296 17.0264 653.638 16.3054 653.98 15.5845L653.738 15.7372C655.964 15.7366 658.189 15.736 660.415 15.7354L660.559 15.7354L660.638 15.6141C661.151 14.821 661.664 14.0279 662.178 13.2348L661.98 13.3546C663.521 13.21 665.061 13.0654 666.602 12.9208L666.557 12.9212C668.44 13.0648 670.323 13.2085 672.206 13.3522L672.315 13.3374C673.514 12.9045 674.712 12.4717 675.91 12.0388L675.812 12.0542C679.749 12.1973 683.686 12.3404 687.623 12.4835L687.672 12.4807C689.555 12.1919 691.438 11.903 693.321 11.6142L693.182 11.597C697.187 12.5067 701.109 12.5996 705.078 12.9111L704.868 12.7731C705.382 13.7822 705.895 14.7914 706.409 15.8005L706.451 15.8829L706.536 15.9187C710.328 17.4426 714.412 17.9148 718.454 17.8816L718.504 17.8748C719.703 17.5861 720.901 17.2975 722.099 17.0088L721.997 17.0117C723.195 17.2277 724.393 17.4436 725.592 17.6596L725.636 17.6635C729.231 17.6626 732.826 17.6617 736.42 17.6607L736.491 17.6607L736.551 17.6229C736.893 17.4066 737.236 17.1902 737.578 16.9739L737.542 16.9925C738.398 16.6318 739.254 16.2711 740.11 15.9105L740.172 15.8723C740.568 15.5263 740.911 15.1588 741.233 14.7556C744.554 13.7733 748.638 13.3975 752.369 12.8968L752.501 12.8809L752.558 12.7613C752.9 12.0403 753.242 11.3193 753.584 10.5984L753.461 10.7164C754.829 10.1398 756.2 9.56215 757.569 8.98523C764.037 8.8118 770.86 8.95042 777.502 8.99884L777.603 8.97723C779.314 8.18382 781.026 7.39041 782.738 6.59699L782.586 6.61205C783.784 6.9001 784.982 7.18816 786.181 7.47622L786.334 7.51308L786.424 7.38385C787.28 6.15812 788.136 4.93239 788.991 3.70666L788.803 3.80496C791.199 3.80436 793.596 3.80376 795.992 3.80316L796.095 3.80314L796.163 3.72672C796.676 3.14988 797.19 2.57304 797.703 1.9962L797.56 2.07082C798.758 1.92634 799.957 1.78186 801.155 1.63739L801.092 1.63609C803.317 1.99599 805.543 2.35588 807.768 2.71578H807.84C810.065 2.35478 812.291 1.99378 814.516 1.63279L814.336 1.58314C815.021 2.15968 815.706 2.73623 816.391 3.31277L816.314 3.11071C815.422 8.24226 820.956 11.2474 825.236 11.7943L825.315 11.8048L825.382 11.7623C829.043 11.5897 833.179 12.6122 837.034 13.303L836.895 13.2084C837.409 14.0013 837.922 14.7941 838.436 15.587L838.5 15.6855L838.617 15.6855C840.5 15.685 842.383 15.6845 844.266 15.6841L844.058 15.5192C844.229 16.2401 844.4 16.9609 844.572 17.6818L844.594 17.7764L844.68 17.8216C847.654 18.8095 850.629 18.2013 853.544 17.8414L853.558 17.8385C855.099 17.4777 856.64 17.1169 858.18 16.7561L858.089 16.7571C858.774 16.9011 859.458 17.0451 860.143 17.1892L860.216 17.1916C862.27 16.9028 864.324 16.6139 866.378 16.3251L866.339 16.3269C867.88 16.3986 869.421 16.4703 870.961 16.542L871.018 16.5447L871.068 16.5184C872.437 15.7972 873.806 15.076 875.176 14.3547L875.079 14.3785C876.62 14.3781 878.161 14.3778 879.701 14.3774L879.686 14.3768C881.569 14.5205 883.452 14.6643 885.335 14.808L885.432 14.8154L885.498 14.7451C886.183 14.024 886.867 13.303 887.552 12.5819L887.378 12.6435C890.63 13.0752 893.883 13.507 897.136 13.9388L897.225 13.9305C898.765 13.4256 900.306 12.9206 901.846 12.4156L901.681 12.3969C902.88 13.1175 904.078 13.8381 905.276 14.5587L905.344 14.5991L905.42 14.5829C907.474 14.1499 909.528 13.7169 911.582 13.2839L911.521 13.2871C913.575 13.5028 915.629 13.7186 917.684 13.9344L917.555 13.8663C918.411 14.8753 919.267 15.8844 920.123 16.8934L920.277 17.075L920.425 16.8883C924.87 17.1223 929.909 18.3725 934.611 19.3335L934.691 19.3338C936.06 19.0451 937.43 18.7565 938.799 18.4678L938.735 18.4703C941.474 18.8301 944.213 19.1899 946.952 19.5497L946.981 19.5513C950.062 19.4785 953.144 19.4057 956.225 19.3329L956.264 19.3278C957.463 19.0392 958.661 18.7506 959.859 18.4619H959.772C960.97 18.75 962.169 19.0381 963.367 19.3262L963.426 19.3404L963.482 19.3168C964.509 18.8841 965.536 18.4513 966.563 18.0185L966.505 18.0325C968.559 17.8879 970.613 17.7432 972.667 17.5986L972.605 17.5922C974.659 18.1685 976.714 18.7448 978.768 19.321L978.873 19.3506L978.949 19.2713C983.578 16.7094 989.409 16.4043 994.756 15.6465L994.71 15.6455C996.593 15.9335 998.476 16.2214 1000.36 16.5094L1000.42 16.5076C1002.48 16.0746 1004.53 15.6416 1006.58 15.2087L1006.52 15.21C1008.23 15.498 1009.94 15.7859 1011.66 16.0739L1011.72 16.0734C1013.26 15.7847 1014.8 15.496 1016.34 15.2073L1016.25 15.2022C1017.62 15.6345 1018.99 16.0667 1020.36 16.4989L1020.42 16.5156L1020.47 16.4984C1022.01 15.9934 1023.55 15.4885 1025.09 14.9835L1025.01 14.9893C1026.2 15.2053 1027.4 15.4213 1028.6 15.6373L1028.65 15.6389C1030.53 15.4222 1032.42 15.2056 1034.3 14.9889L1034.25 14.9864C1035.62 15.2744 1036.98 15.5625 1038.35 15.8506L1038.4 15.854C1039.94 15.7816 1041.48 15.7091 1043.02 15.6367L1043.07 15.6342L1043.11 15.6014C1044.31 14.664 1045.51 13.7266 1046.71 12.7892L1046.64 12.8209C1048.69 12.3879 1050.75 11.9549 1052.8 11.522L1052.74 11.5225C1054.96 11.9545 1057.19 12.3866 1059.41 12.8187L1059.46 12.8213C1062.54 12.6044 1065.62 12.3874 1068.7 12.1705C1070.75 12.0983 1072.8 12.0258 1074.86 11.9533L1074.9 11.9466C1076.1 11.5859 1077.29 11.2252 1078.49 10.8645L1078.46 10.8704C1082.45 10.6858 1086.42 11.959 1090.2 13.2382L1090.29 13.2693L1090.36 13.2108C1094.4 12.8041 1098.85 13.0001 1103.09 13.0287L1102.99 12.9845C1105.5 14.6607 1108.47 14.803 1111.3 15.189L1111.34 15.187C1113.22 14.8261 1115.11 14.4653 1116.99 14.1045L1116.95 14.1067C1120.56 14.2582 1124.14 15.0438 1127.8 14.4671C1132.94 13.9996 1138.39 13.0177 1143.69 12.3704C1145.23 12.0805 1146.78 11.7918 1148.32 11.5031C1150.02 11.2879 1151.73 11.0712 1153.44 10.8546L1153.46 10.8504C1155 10.4176 1156.54 9.98474 1158.09 9.5519L1158.01 9.55286C1158.87 9.76896 1159.72 9.98506 1160.58 10.2012C1161.94 10.6311 1163.31 11.0634 1164.68 11.4957L1164.7 11.5003C1165.9 11.6899 1167.08 11.8913 1168.32 11.9341C1170.6 12.6995 1172.78 14.2604 1174.92 15.5866L1174.97 15.618L1175.02 15.6061C1175.92 15.416 1176.83 15.2194 1177.72 15.0146C1178.17 14.912 1178.62 14.8069 1179.07 14.6964C1179.3 14.6406 1179.52 14.5835 1179.74 14.5218C1179.86 14.4893 1179.97 14.4593 1180.08 14.4206C1180.14 14.4011 1180.2 14.3825 1180.26 14.3506C1180.29 14.3344 1180.29 14.3472 1180.34 14.2929C1180.35 14.2776 1180.37 14.2538 1180.38 14.2117C1180.39 14.1648 1180.35 14.099 1180.33 14.0803C1180.26 14.0363 1180.27 14.0513 1180.25 14.0436C1180.18 14.0315 1180.17 14.0349 1180.13 14.0337C1180.1 14.0339 1180.07 14.0359 1180.03 14.0459C1179.97 14.0437 1179.86 14.18 1179.91 14.2651C1179.95 14.3683 1179.99 14.3812 1180.03 14.4179C1180.1 14.4777 1180.16 14.5234 1180.24 14.5709C1180.37 14.6591 1180.52 14.7462 1180.66 14.8227C1180.94 14.9825 1181.23 15.1323 1181.51 15.2796C1182.09 15.5742 1182.67 15.8562 1183.25 16.1349C1184.41 16.6903 1185.58 17.2309 1186.75 17.7572L1186.79 17.7734L1186.82 17.7679C1188.88 17.4792 1190.93 17.1904 1192.99 16.9017L1192.9 16.882C1193.92 17.5306 1194.95 18.1792 1195.98 18.8278L1196.03 18.8471C1197.91 19.1351 1199.8 19.4231 1201.68 19.7111L1201.63 19.6955C1202.15 19.9838 1202.66 20.272 1203.17 20.5603L1203.22 20.5765C1206.31 20.9363 1209.39 21.2962 1212.47 21.6561L1212.52 21.6508C1213.89 21.218 1215.26 20.7853 1216.63 20.3525L1216.59 20.3585C1220.52 20.3578 1224.47 20.3571 1228.4 20.3563C1230.38 19.6564 1231.66 18.1487 1233.11 16.8593L1233.03 16.895C1235.25 16.8945 1237.48 16.8941 1239.7 16.8937L1239.77 16.8937L1239.81 16.8318C1240.32 15.9667 1240.84 15.1015 1241.35 14.2363L1241.24 14.2978C1245.17 14.5133 1249.11 14.7288 1253.05 14.9444L1253.07 14.9432C1255.47 14.5823 1257.87 14.2214 1260.26 13.8605L1260.22 13.8593C1261.93 14.2194 1263.64 14.5795 1265.35 14.9397L1265.39 14.9416C1267.45 14.725 1269.5 14.5083 1271.55 14.2917L1271.59 14.2875L1271.62 14.2603C1272.48 13.4672 1273.33 12.674 1274.19 11.8809L1273.99 11.7931C1277.43 11.5846 1280.28 10.2108 1283.39 9.30997L1283.36 9.31549C1285.25 9.17097 1287.13 9.02646 1289.01 8.88194L1289.08 8.877L1289.11 8.81994C1289.47 7.99285 1290.05 7.11308 1289.61 6.09793C1292.92 5.16716 1297.07 4.7949 1300.83 4.33744L1300.93 4.32623V4.22377C1300.93 3.50288 1300.93 2.78198 1300.93 2.06109L1300.86 2.16339C1301.89 1.65858 1302.92 1.15378 1303.95 0.648974L1303.9 0.660481C1307.15 0.515731 1310.41 0.370983 1313.66 0.226238L1313.55 0.166798C1313.9 0.815541 1314.24 1.46428 1314.58 2.11303L1314.6 2.15197L1314.64 2.1663C1315.49 2.45762 1316.33 2.76566 1317.16 3.09395C1317.58 3.25912 1317.99 3.42883 1318.4 3.61409C1318.6 3.70688 1318.8 3.80332 1318.99 3.91061C1319.16 3.99218 1319.41 4.23033 1319.28 4.11579C1319.21 4.12328 1319.05 4.20199 1319.07 4.34674C1319.09 4.46241 1319.13 4.50984 1319.18 4.57122C1319.26 4.67933 1319.35 4.76079 1319.45 4.84609C1319.65 5.00883 1319.85 5.15549 1320.05 5.29769C1320.46 5.5818 1320.88 5.8435 1321.3 6.10043C1322.14 6.61209 1323.01 7.09823 1323.87 7.56414L1323.81 7.46778C1323.81 8.11658 1323.81 8.76539 1323.81 9.41419V9.48847L1323.88 9.51562C1326.45 10.5244 1329.02 11.5332 1331.59 12.542L1331.61 12.5472C1332.63 12.7633 1333.66 12.9794 1334.69 13.1955L1334.71 13.1977C1337.96 13.1251 1341.22 13.0525 1344.47 12.9798L1344.49 12.9776C1347.57 12.3283 1350.65 11.6789 1353.73 11.0296L1353.65 11.015C1355.54 12.2402 1357.42 13.4654 1359.3 14.6906L1359.34 14.7046C1361.22 15.1369 1363.1 15.5691 1364.99 16.0013L1364.92 15.9497C1365.26 16.5984 1365.6 17.2472 1365.95 17.8959L1365.97 17.9337L1366.01 17.9458C1367.72 18.4501 1369.43 18.9545 1371.14 19.4588L1371.07 19.3625C1371.07 20.0834 1371.07 20.8043 1371.07 21.5252V21.6253L1371.17 21.6252C1373.74 21.6248 1376.31 21.6244 1378.87 21.624L1378.82 21.606C1379.84 22.3268 1380.87 23.0475 1381.9 23.7682L1381.94 23.7848C1383.31 24.0009 1384.68 24.2169 1386.05 24.433L1386.07 24.4338C1388.47 24.2171 1390.87 24.0004 1393.26 23.7838L1393.21 23.7746C1394.41 24.3512 1395.61 24.9277 1396.81 25.5042L1396.84 25.5206L1396.88 25.5092C1398.25 25.0765 1399.62 24.6437 1400.99 24.211L1400.94 24.2138C1402.48 24.5019 1404.02 24.79 1405.56 25.0781H1405.6C1407.14 24.7895 1408.68 24.5009 1410.22 24.2123L1410.17 24.2083C1411.37 24.6407 1412.57 25.073 1413.76 25.5053L1413.82 25.5255L1413.86 25.4833C1414.72 24.6181 1415.57 23.7529 1416.43 22.8877L1416.32 22.9064C1417.86 23.627 1419.41 24.3477 1420.95 25.0683L1420.99 25.0882L1421.03 25.0652C1422.06 24.4883 1423.08 23.9115 1424.11 23.3346L1424.06 23.3462C1427.49 23.4178 1430.91 23.4893 1434.34 23.5609L1434.36 23.5586C1435.9 23.1979 1437.44 22.8372 1438.98 22.4765L1438.96 22.4788C1439.47 22.4787 1439.99 22.4787 1440.5 22.4786L1440.41 22.3902C1440.41 26.4272 1440.41 30.4642 1440.41 34.5012L1440.5 34.4147C1439.99 34.4148 1439.47 34.4149 1438.96 34.415L1438.93 34.4193C1437.39 34.9241 1435.85 35.429 1434.31 35.9338L1434.35 35.93C1432.12 35.7141 1429.9 35.4981 1427.67 35.2822L1427.64 35.2859C1425.41 36.0072 1423.18 36.7284 1420.96 37.4496L1421 37.4468C1418.95 37.0867 1416.89 36.7265 1414.84 36.3664L1414.8 36.3679C1412.06 37.0892 1409.32 37.8105 1406.59 38.5318L1406.65 38.5416C1405.62 37.893 1404.59 37.2443 1403.57 36.5957L1403.55 36.5821L1403.52 36.5833C1401.98 36.6556 1400.44 36.7279 1398.9 36.8003L1398.95 36.8164C1398.09 36.1677 1397.24 35.5191 1396.38 34.8704L1396.36 34.8567L1396.34 34.8546C1393.26 34.5667 1390.18 34.2788 1387.1 33.9909L1387.15 34.0137C1386.29 33.1488 1385.43 32.2838 1384.58 31.4189L1384.56 31.4016L1384.54 31.3972C1380.78 30.7795 1376.95 31.0811 1373.21 31.6147L1373.19 31.6248C1371.64 32.5622 1370.1 33.4996 1368.56 34.437L1368.61 34.4268C1366.56 34.1387 1364.5 33.8506 1362.45 33.5626L1362.43 33.559L1362.4 33.5718C1361.03 34.365 1359.66 35.1582 1358.3 35.9514L1358.35 35.9436C1356.3 35.4392 1354.24 34.9349 1352.19 34.4306L1352.16 34.4248L1352.14 34.4342C1350.94 34.939 1349.74 35.4438 1348.55 35.9486L1348.59 35.9438C1347.22 35.7277 1345.85 35.5116 1344.48 35.2956L1344.45 35.2973C1342.91 35.7301 1341.37 36.1628 1339.82 36.5956L1339.85 36.5933C1336.43 36.2334 1333 35.8734 1329.58 35.5134L1329.55 35.5105L1329.53 35.5275C1328.5 36.3207 1327.48 37.1138 1326.45 37.9069L1326.49 37.8927C1324.43 38.0371 1322.38 38.1816 1320.32 38.3261C1316.22 38.1823 1312.11 38.0387 1308.01 37.8951L1308.05 37.9127C1307.19 37.1199 1306.34 36.327 1305.48 35.5341L1305.45 35.5192C1303.23 34.8707 1301 34.2222 1298.78 33.5737L1298.81 33.5984C1298.3 32.8776 1297.79 32.1567 1297.27 31.4359L1297.26 31.416L1297.23 31.4105C1295.69 31.0502 1294.15 30.69 1292.61 30.3297L1292.6 30.3281C1290.2 30.4005 1287.8 30.4729 1285.41 30.5453C1281.65 30.3296 1277.88 30.1138 1274.11 29.898L1274.13 29.9013C1272.25 29.2527 1270.36 28.6042 1268.48 27.9556L1268.44 27.9432L1268.42 27.9704C1267.56 28.8355 1266.71 29.7007 1265.85 30.5659L1265.88 30.5488C1264.17 30.8374 1262.46 31.126 1260.75 31.4145L1260.76 31.414C1258.71 31.198 1256.65 30.982 1254.6 30.766L1254.58 30.7641L1254.57 30.7728C1250.41 32.6316 1245.75 33.0772 1241.24 33.5791L1241.22 33.5823C1240.02 34.015 1238.83 34.4477 1237.63 34.8804L1237.64 34.8771C1235.76 35.0216 1233.88 35.166 1231.99 35.3104C1229.08 35.6715 1226.17 36.0323 1223.26 36.3931L1223.24 36.4026C1222.72 36.7631 1222.21 37.1236 1221.7 37.4841L1221.73 37.4742C1219.33 37.4745 1216.93 37.4748 1214.54 37.4751C1213.33 37.6924 1212.13 37.9088 1210.93 38.1252L1210.95 38.1253C1209.07 37.7651 1207.19 37.4048 1205.3 37.0446L1205.28 37.0459C1202.62 37.787 1199.77 37.5971 1197.09 37.046L1197.07 37.0453C1194.84 37.406 1192.62 37.7668 1190.39 38.1275L1190.43 38.1347C1188.72 37.0535 1187 35.9724 1185.29 34.8913L1185.27 34.884C1183.22 34.5959 1181.16 34.3078 1179.11 34.0196L1179.1 34.0195C1176.53 34.3081 1173.96 34.5968 1171.39 34.8854L1171.45 34.9235C1171.28 34.1305 1171.1 33.3376 1170.93 32.5446L1170.92 32.4962L1170.87 32.5078C1169.68 32.7963 1168.48 33.0848 1167.28 33.3733L1167.3 33.3723C1164.73 33.0842 1162.16 32.7961 1159.59 32.5081H1159.58C1157.01 32.7967 1154.45 33.0854 1151.88 33.374C1149.65 34.0246 1147.42 34.6737 1145.2 35.3227L1145.22 35.3222C1143.16 34.8178 1141.11 34.3134 1139.06 33.809L1139.07 33.8146C1138.04 33.1659 1137.01 32.5173 1135.99 31.8686L1135.97 31.8629C1134.43 31.5026 1132.89 31.1423 1131.35 30.7821L1131.33 30.7816C1128.94 31.2144 1126.54 31.6472 1124.14 32.08L1124.17 32.0839C1123.32 31.6515 1122.46 31.219 1121.6 30.7866L1121.59 30.7816L1121.58 30.782C1119.7 30.8543 1117.82 30.9266 1115.93 30.9989L1115.95 31.0022C1114.58 30.4256 1113.21 29.849 1111.84 29.2725L1111.83 29.2664L1111.81 29.2713C1110.27 29.7761 1108.73 30.2809 1107.19 30.7856L1107.2 30.7836C1105.32 30.8559 1103.44 30.9282 1101.55 31.0005L1101.54 31.0051C1100.85 31.3656 1100.17 31.7262 1099.48 32.0867L1099.46 32.098V32.1223C1099.46 32.9873 1099.46 33.8524 1099.46 34.7175L1099.47 34.6914C1098.79 35.4844 1098.1 36.2775 1097.42 37.0705L1097.45 37.0568C1092.31 36.9132 1087.18 36.7695 1082.04 36.6259L1082.03 36.6275C1080.15 37.2044 1078.26 37.7813 1076.38 38.3582L1076.41 38.3592C1073.84 37.3502 1071.27 36.3412 1068.7 35.3322L1068.69 35.3282L1068.68 35.3305C1066.63 35.7632 1064.57 36.1959 1062.52 36.6287L1062.55 36.6375C1061.69 35.8446 1060.84 35.0517 1059.98 34.2588L1059.97 34.2513L1059.96 34.2497C1056.54 33.7454 1053.12 33.2411 1049.69 32.7368L1049.72 32.751C1047.2 30.2518 1043.7 29.1981 1040.45 27.9813L1040.45 27.9784L1040.44 27.9803C1038.38 28.413 1036.33 28.8458 1034.27 29.2785C1030.86 29.3502 1027.43 29.4226 1024.01 29.495L1024 29.4952L1023.99 29.5005C1023.14 30.0773 1022.28 30.6541 1021.42 31.2309L1021.44 31.2255C1018.19 31.4421 1014.93 31.6587 1011.68 31.8752C1010.14 31.9474 1008.6 32.0196 1007.06 32.0919C1004.83 32.3085 1002.61 32.5249 1000.38 32.7414C998.669 33.0302 996.958 33.3187 995.246 33.6072C991.312 33.7513 987.375 33.8959 983.438 34.0404C981.037 34.4736 978.641 34.9063 976.244 35.3391C973.338 35.4831 970.428 35.6275 967.517 35.7719C965.811 35.4841 964.1 35.1959 962.388 34.9076C960.839 35.1239 959.298 35.3403 957.758 35.5567C952.455 35.4848 947.148 35.4132 941.842 35.3415C939.953 35.7748 938.07 36.2075 936.187 36.6402L936.204 36.6427C934.663 35.7778 933.123 34.9128 931.582 34.0479L931.575 34.0441L931.567 34.045C929.684 34.2614 927.801 34.4778 925.918 34.6942C924.041 34.4781 922.158 34.262 920.275 34.0459C919.426 33.6157 918.57 33.1833 917.714 32.7508C915.483 32.3164 913.258 31.8841 911.032 31.4517C910.013 30.806 908.986 30.1573 907.958 29.5085L907.953 29.5052H907.947C905.893 29.5053 903.838 29.5055 901.784 29.5056L901.797 29.5101C900.77 28.7172 899.743 27.9243 898.716 27.1314L898.707 27.1249L898.697 27.1278C897.156 27.5604 895.616 27.9931 894.075 28.4257C891.344 28.209 888.605 27.9929 885.866 27.7768C884.149 28.0655 882.437 28.354 880.725 28.6425C879.531 28.5703 878.333 28.4983 877.135 28.4263C875.416 28.9318 873.705 29.4365 871.993 29.9413C870.79 30.6642 869.592 31.3852 868.394 32.1061L868.405 32.1035C865.323 31.8875 862.242 31.6714 859.161 31.4554C857.781 32.1784 856.412 32.8994 855.043 33.6204C852.824 33.7627 850.599 33.907 848.374 34.0513C844.951 34.1236 841.527 34.196 838.103 34.2683C830.276 35.5656 821.994 35.74 814.486 32.9736C812.084 32.9003 809.688 32.8284 807.291 32.7564C805.926 32.2528 804.557 31.7483 803.187 31.2437C801.813 31.2429 800.443 31.243 799.074 31.2431C796.853 30.3791 794.628 29.5142 792.402 28.6493C790.681 29.2981 788.969 29.947 787.257 30.5959C785.727 29.9474 784.186 29.2987 782.645 28.65L782.638 28.6469L782.632 28.652C779.733 29.868 776.499 30.1109 773.394 30.596C771.342 30.524 769.288 30.452 767.234 30.38C766.201 30.9583 765.173 31.5351 764.146 32.1119C762.61 32.3268 761.069 32.5432 759.529 32.7595C758.327 33.265 757.129 33.7697 755.931 34.2744C754.221 34.6343 752.509 34.9948 750.798 35.3554C748.575 35.2832 746.349 35.2112 744.124 35.1392C741.211 35.9328 738.301 36.7259 735.391 37.519C733.853 37.5187 732.312 37.5188 730.771 37.5189C729.234 37.0149 727.693 36.5103 726.152 36.0058C724.436 36.2939 722.724 36.5823 721.012 36.8708C718.371 36.0418 715.548 36.0162 712.797 35.7897C711.601 35.4297 710.403 35.0693 709.205 34.7089C706.804 35.0692 704.408 35.4298 702.011 35.7903C700.304 35.0701 698.592 34.3493 696.88 33.6285C694.821 34.1328 692.766 34.6375 690.712 35.1422C689.691 34.6383 688.664 34.1337 687.636 33.6291C685.921 33.6284 684.209 33.6285 682.497 33.6285C680.96 32.7645 679.42 31.8995 677.879 31.0345C675.478 31.3221 673.081 31.6105 670.685 31.899C670.006 31.1084 669.321 30.3155 668.637 29.5225C664.521 30.674 660.413 31.8276 656.305 32.9812C652.539 33.4137 648.773 33.8464 645.007 34.2791C645.002 35.15 645.002 36.0151 645.002 36.8802C643.296 36.8744 641.584 36.8745 639.873 36.8746C638.843 37.3798 637.816 37.8845 636.789 38.3891C634.736 38.8934 632.682 39.3981 630.627 39.9028C628.918 39.3983 627.206 38.8938 625.495 38.3892C623.609 38.8939 621.726 39.3986 619.843 39.9033C618.477 39.1108 617.107 38.3179 615.738 37.5249C613.509 38.1013 611.284 38.6781 609.058 39.2548C607.348 38.9665 605.636 38.6782 603.925 38.3899C601.016 37.0206 598.105 35.651 595.195 34.2814C593.481 34.4974 591.769 34.7137 590.058 34.93C588.348 34.1374 586.636 33.3445 584.924 32.5516C582.867 33.3445 580.813 34.1376 578.759 34.9306C577.563 34.138 576.365 33.3451 575.167 32.5521C573.623 33.1286 572.083 33.7053 570.542 34.2821C569.003 33.7054 567.463 33.1287 565.922 32.5521C564.209 32.5519 562.497 32.552 560.786 32.552C559.589 31.7595 558.391 30.9666 557.192 30.1736C555.821 30.4616 554.451 30.75 553.082 31.0384C550.001 30.5339 546.92 30.0293 543.839 29.5248C542.126 30.318 540.414 31.111 538.702 31.904C536.649 31.6155 534.595 31.3272 532.54 31.0389C530.828 31.0389 529.117 31.039 527.405 31.039C525.864 30.7507 524.324 30.4624 522.783 30.1741C519.535 32.3996 515.663 33.5336 511.998 34.9323C508.917 35.3648 505.835 35.7974 502.754 36.23C500.871 35.7975 498.988 35.365 497.105 34.9325C495.735 35.3651 494.366 35.7977 492.996 36.2302C491.285 35.3653 489.573 34.5002 487.862 33.6352C482.555 33.4189 477.248 33.2027 471.941 32.9865C471.257 32.6982 470.572 32.4099 469.887 32.1215C466.292 31.6169 462.697 31.1123 459.102 30.6078C454.994 30.8962 450.885 31.1846 446.777 31.473C445.579 31.6893 444.38 31.9056 443.182 32.1218C440.792 32.4613 437.852 32.7215 436.506 34.9337C433.938 34.5009 431.37 34.0684 428.803 33.6359C427.262 34.2847 425.721 34.9335 424.181 35.5823C422.298 35.7986 420.415 36.0149 418.532 36.2312C416.306 36.4474 414.081 36.6637 411.855 36.88C410.486 37.4567 409.116 38.0335 407.747 38.6102C408.465 38.8961 409.186 39.1825 409.906 39.4681C410.267 39.6112 410.623 39.7527 410.985 39.8958C411.161 39.9649 411.346 40.0383 411.524 40.1072C411.445 40.0701 411.203 39.9751 411.03 39.9048C409.605 39.3315 408.173 38.7593 406.72 38.1777C401.146 35.9128 394.389 35.9498 389.259 39.2591C383.965 38.0365 378.671 36.8138 373.377 35.5912C373.364 35.5883 373.352 35.5854 373.339 35.5826C371.798 35.5826 370.258 35.5825 368.717 35.5825C366.834 35.1499 364.951 34.7173 363.068 34.2846C361.699 34.2845 360.329 34.2844 358.96 34.2842C356.05 33.0585 353.14 31.8326 350.23 30.6066C348.346 31.1109 346.462 31.6152 344.579 32.1194C342.869 31.6145 341.158 31.1095 339.446 30.6044C337.732 30.8923 336.02 31.1802 334.308 31.4681C332.596 31.6839 330.885 31.8997 329.173 32.1154C328.855 32.551 328.491 32.9531 328.07 33.2852C327.667 33.597 327.095 33.9294 326.61 33.6294C322.619 33.4968 318.689 34.7418 314.791 35.5706C312.226 35.5692 309.659 35.5681 307.091 35.5669C303.155 35.1327 299.218 34.6982 295.281 34.2636C293.227 34.0462 291.173 33.8288 289.119 33.6113C286.715 34.0427 284.318 34.4738 281.922 34.9049L281.938 34.9067C273.582 32.6801 264.844 32.5919 256.251 32.0746L256.221 32.0734L256.207 32.0993C255.693 33.0361 255.179 33.9728 254.664 34.9096L254.709 34.8834C253.168 34.8822 251.627 34.8809 250.087 34.8796L250.068 34.8796L250.054 34.8906C249.197 35.5386 248.341 36.1867 247.484 36.8348L247.519 36.8232C245.465 36.8214 243.41 36.8196 241.356 36.8177C236.911 37.3059 232.039 37.612 228.014 38.2525C223.899 36.6601 218.779 36.3361 214.152 35.4931L214.122 35.4886L214.096 35.5022C210.243 37.5889 205.248 36.8953 201.881 34.2043L201.839 34.1691L201.786 34.1829C195.051 35.8743 187.786 35.3117 181.322 32.866L181.271 32.8556C178.018 32.8513 174.766 32.8469 171.513 32.8424L171.569 32.8538C170.885 32.5645 170.201 32.2752 169.516 31.9858L169.459 31.9742C166.035 31.9694 162.612 31.9645 159.188 31.9595L159.256 31.9743C157.374 31.1065 155.492 30.2386 153.611 29.3707L153.563 29.3567C152.536 29.2109 151.509 29.0652 150.482 28.9194L150.416 28.9226C149.676 29.0995 148.936 29.2764 148.196 29.4532C146.539 29.8494 144.881 30.2455 143.224 30.6416L143.301 30.6392C140.049 30.0574 136.797 29.4754 133.546 28.8933L133.445 28.9009C132.589 29.1878 131.732 29.4748 130.876 29.7617L130.942 29.7508C128.717 29.7471 126.492 29.7433 124.266 29.7395L124.204 29.7485C122.491 30.2502 120.779 30.7518 119.066 31.2535L119.155 31.2454C117.101 31.0255 115.047 30.8056 112.993 30.5857L112.945 30.5855C108.493 31.0101 104.042 31.4344 99.5902 31.8586L99.5019 31.8674L99.4372 31.9266C98.4084 32.8618 97.3795 33.797 96.3506 34.7322L96.5345 34.661C94.1379 34.6564 91.7413 34.6518 89.3447 34.6471C87.9753 34.6444 86.6058 34.6417 85.2363 34.639L85.2157 34.6397C83.9192 34.7284 82.621 34.8209 81.3227 34.9191C80.6744 34.9683 80.0272 35.0187 79.3748 35.0738C79.0497 35.1014 78.7245 35.1299 78.3986 35.1622C78.2343 35.1787 78.0744 35.195 77.9035 35.2178C77.8649 35.223 77.8147 35.2302 77.7684 35.2388C77.7253 35.2494 77.7525 35.2341 77.6388 35.2754C77.6218 35.2833 77.6007 35.2923 77.5659 35.3194C77.5396 35.3579 77.453 35.3573 77.4494 35.6013C77.495 35.8194 77.6124 35.8333 77.6406 35.8541C77.6771 35.8696 77.7089 35.875 77.709 35.8752C77.7324 35.88 77.7495 35.8821 77.7672 35.8839C77.8824 35.8936 77.9484 35.8921 78.0466 35.8929C78.3624 35.8856 78.7706 35.8674 79.078 35.4964C79.3618 35.1041 79.2682 34.6924 79.187 34.3903C78.992 33.7682 78.6633 33.2691 78.2955 32.7904L78.1783 32.6429L77.9939 32.6744C76.3031 32.9457 74.5902 33.1652 72.8835 33.3092C71.9552 33.4007 71.0873 33.0455 70.2426 32.5331C69.4382 32.043 68.2956 31.3886 67.1594 31.7973C62.6055 31.9229 57.6527 30.576 52.9654 29.5964L52.8262 29.5913C50.9425 29.8755 49.0588 30.1596 47.1751 30.4437H47.2918C45.4095 30.1511 43.5271 29.8584 41.6447 29.5657L41.599 29.5614C37.6621 29.4082 33.7252 29.2548 29.7883 29.1012L29.6745 29.1124C26.934 29.7547 24.1935 30.3969 21.453 31.039L21.6026 31.0295C19.5489 30.8082 17.4953 30.5869 15.4416 30.3655L15.3354 30.3666C11.9106 30.7907 8.48587 31.2146 5.06108 31.6384L5.25404 31.6527C3.71448 31.2163 2.17493 30.7798 0.635393 30.3433ZM0.365096 31.3061L0.635393 30.3433L1.00024 30.8247H0.000244141L0.000104725 31.2026L0.365096 31.3061Z" fill="white"/>
</svg>
